<?xml version="1.0" encoding="utf-8"?>
<!-- Generator: Adobe Illustrator 27.5.0, SVG Export Plug-In . SVG Version: 6.00 Build 0)  -->
<svg version="1.1" xmlns="http://www.w3.org/2000/svg" xmlns:xlink="http://www.w3.org/1999/xlink" x="0px" y="0px"
	 viewBox="0 0 500 500" style="enable-background:new 0 0 500 500;" xml:space="preserve">
<g id="BACKGROUND">
	<rect y="-0.005" style="fill:#EBC17D;" width="500" height="500.01"/>
</g>
<g id="OBJECTS">
	<g>
		<defs>
			<rect id="SVGID_1_" y="-0.005" width="500" height="500.01"/>
		</defs>
		<clipPath id="SVGID_00000020362773562548284570000006384611628196476304_">
			<use xlink:href="#SVGID_1_"  style="overflow:visible;"/>
		</clipPath>
		<g style="clip-path:url(#SVGID_00000020362773562548284570000006384611628196476304_);">
			<rect x="41.177" y="82.022" style="fill:#C7A36A;" width="181.746" height="255.641"/>
			<rect x="39.177" y="80.022" style="fill:#F0DAAC;" width="181.746" height="255.641"/>
			<g>
				<g>
					<path style="fill:#D4B26E;" d="M122.406,115.467h-67.59c-0.324,0-0.587-0.263-0.587-0.587l0,0c0-0.324,0.263-0.587,0.587-0.587
						h67.59c0.324,0,0.587,0.263,0.587,0.587l0,0C122.993,115.204,122.73,115.467,122.406,115.467z"/>
					<path style="fill:#D4B26E;" d="M122.406,118.721h-67.59c-0.324,0-0.587-0.263-0.587-0.587l0,0c0-0.325,0.263-0.587,0.587-0.587
						h67.59c0.324,0,0.587,0.263,0.587,0.587l0,0C122.993,118.458,122.73,118.721,122.406,118.721z"/>
					<path style="fill:#D4B26E;" d="M122.406,121.975h-67.59c-0.324,0-0.587-0.263-0.587-0.587l0,0c0-0.324,0.263-0.587,0.587-0.587
						h67.59c0.324,0,0.587,0.263,0.587,0.587l0,0C122.993,121.712,122.73,121.975,122.406,121.975z"/>
					<path style="fill:#D4B26E;" d="M122.406,125.228h-67.59c-0.324,0-0.587-0.263-0.587-0.587l0,0c0-0.324,0.263-0.587,0.587-0.587
						h67.59c0.324,0,0.587,0.263,0.587,0.587l0,0C122.993,124.965,122.73,125.228,122.406,125.228z"/>
					<path style="fill:#D4B26E;" d="M122.406,128.482h-67.59c-0.324,0-0.587-0.263-0.587-0.587l0,0c0-0.324,0.263-0.587,0.587-0.587
						h67.59c0.324,0,0.587,0.263,0.587,0.587l0,0C122.993,128.219,122.73,128.482,122.406,128.482z"/>
					<path style="fill:#D4B26E;" d="M122.406,131.735h-67.59c-0.324,0-0.587-0.263-0.587-0.587l0,0c0-0.324,0.263-0.587,0.587-0.587
						h67.59c0.324,0,0.587,0.263,0.587,0.587l0,0C122.993,131.472,122.73,131.735,122.406,131.735z"/>
					<path style="fill:#D4B26E;" d="M122.406,134.989h-67.59c-0.324,0-0.587-0.263-0.587-0.587l0,0c0-0.324,0.263-0.587,0.587-0.587
						h67.59c0.324,0,0.587,0.263,0.587,0.587l0,0C122.993,134.726,122.73,134.989,122.406,134.989z"/>
					<path style="fill:#D4B26E;" d="M122.406,138.243h-67.59c-0.324,0-0.587-0.263-0.587-0.587l0,0c0-0.324,0.263-0.587,0.587-0.587
						h67.59c0.324,0,0.587,0.263,0.587,0.587l0,0C122.993,137.98,122.73,138.243,122.406,138.243z"/>
					<path style="fill:#D4B26E;" d="M122.406,141.496h-67.59c-0.324,0-0.587-0.263-0.587-0.587l0,0c0-0.324,0.263-0.587,0.587-0.587
						h67.59c0.324,0,0.587,0.263,0.587,0.587l0,0C122.993,141.233,122.73,141.496,122.406,141.496z"/>
					<path style="fill:#D4B26E;" d="M122.406,144.75h-67.59c-0.324,0-0.587-0.263-0.587-0.587l0,0c0-0.324,0.263-0.587,0.587-0.587
						h67.59c0.324,0,0.587,0.263,0.587,0.587l0,0C122.993,144.487,122.73,144.75,122.406,144.75z"/>
				</g>
				<g>
					<path style="fill:#D4B26E;" d="M122.406,156.854h-67.59c-0.324,0-0.587-0.263-0.587-0.587l0,0c0-0.324,0.263-0.587,0.587-0.587
						h67.59c0.324,0,0.587,0.263,0.587,0.587l0,0C122.993,156.591,122.73,156.854,122.406,156.854z"/>
					<path style="fill:#D4B26E;" d="M122.406,160.108h-67.59c-0.324,0-0.587-0.263-0.587-0.587l0,0c0-0.324,0.263-0.587,0.587-0.587
						h67.59c0.324,0,0.587,0.263,0.587,0.587l0,0C122.993,159.845,122.73,160.108,122.406,160.108z"/>
					<path style="fill:#D4B26E;" d="M122.406,163.361h-67.59c-0.324,0-0.587-0.263-0.587-0.587l0,0c0-0.324,0.263-0.587,0.587-0.587
						h67.59c0.324,0,0.587,0.263,0.587,0.587l0,0C122.993,163.098,122.73,163.361,122.406,163.361z"/>
					<path style="fill:#D4B26E;" d="M122.406,166.615h-67.59c-0.324,0-0.587-0.263-0.587-0.587l0,0c0-0.324,0.263-0.587,0.587-0.587
						h67.59c0.324,0,0.587,0.263,0.587,0.587l0,0C122.993,166.352,122.73,166.615,122.406,166.615z"/>
					<path style="fill:#D4B26E;" d="M122.406,169.869h-67.59c-0.324,0-0.587-0.263-0.587-0.587l0,0c0-0.324,0.263-0.587,0.587-0.587
						h67.59c0.324,0,0.587,0.263,0.587,0.587l0,0C122.993,169.606,122.73,169.869,122.406,169.869z"/>
					<path style="fill:#D4B26E;" d="M122.406,173.122h-67.59c-0.324,0-0.587-0.263-0.587-0.587l0,0c0-0.324,0.263-0.587,0.587-0.587
						h67.59c0.324,0,0.587,0.263,0.587,0.587l0,0C122.993,172.859,122.73,173.122,122.406,173.122z"/>
					<path style="fill:#D4B26E;" d="M122.406,176.376h-67.59c-0.324,0-0.587-0.263-0.587-0.587l0,0c0-0.324,0.263-0.587,0.587-0.587
						h67.59c0.324,0,0.587,0.263,0.587,0.587l0,0C122.993,176.113,122.73,176.376,122.406,176.376z"/>
					<path style="fill:#D4B26E;" d="M122.406,179.63h-67.59c-0.324,0-0.587-0.263-0.587-0.587l0,0c0-0.324,0.263-0.587,0.587-0.587
						h67.59c0.324,0,0.587,0.263,0.587,0.587l0,0C122.993,179.367,122.73,179.63,122.406,179.63z"/>
					<path style="fill:#D4B26E;" d="M122.406,182.883h-67.59c-0.324,0-0.587-0.263-0.587-0.587l0,0c0-0.325,0.263-0.587,0.587-0.587
						h67.59c0.324,0,0.587,0.263,0.587,0.587l0,0C122.993,182.62,122.73,182.883,122.406,182.883z"/>
					<path style="fill:#D4B26E;" d="M122.406,186.137h-67.59c-0.324,0-0.587-0.263-0.587-0.587l0,0c0-0.324,0.263-0.587,0.587-0.587
						h67.59c0.324,0,0.587,0.263,0.587,0.587l0,0C122.993,185.874,122.73,186.137,122.406,186.137z"/>
				</g>
				<g>
					<path style="fill:#D4B26E;" d="M122.406,198.241h-67.59c-0.324,0-0.587-0.263-0.587-0.587l0,0c0-0.324,0.263-0.587,0.587-0.587
						h67.59c0.324,0,0.587,0.263,0.587,0.587l0,0C122.993,197.978,122.73,198.241,122.406,198.241z"/>
					<path style="fill:#D4B26E;" d="M122.406,201.495h-67.59c-0.324,0-0.587-0.263-0.587-0.587l0,0c0-0.324,0.263-0.587,0.587-0.587
						h67.59c0.324,0,0.587,0.263,0.587,0.587l0,0C122.993,201.232,122.73,201.495,122.406,201.495z"/>
					<path style="fill:#D4B26E;" d="M122.406,204.748h-67.59c-0.324,0-0.587-0.263-0.587-0.587l0,0c0-0.324,0.263-0.587,0.587-0.587
						h67.59c0.324,0,0.587,0.263,0.587,0.587l0,0C122.993,204.485,122.73,204.748,122.406,204.748z"/>
					<path style="fill:#D4B26E;" d="M122.406,208.002h-67.59c-0.324,0-0.587-0.263-0.587-0.587l0,0c0-0.324,0.263-0.587,0.587-0.587
						h67.59c0.324,0,0.587,0.263,0.587,0.587l0,0C122.993,207.739,122.73,208.002,122.406,208.002z"/>
					<path style="fill:#D4B26E;" d="M122.406,211.256h-67.59c-0.324,0-0.587-0.263-0.587-0.587l0,0c0-0.324,0.263-0.587,0.587-0.587
						h67.59c0.324,0,0.587,0.263,0.587,0.587l0,0C122.993,210.993,122.73,211.256,122.406,211.256z"/>
					<path style="fill:#D4B26E;" d="M122.406,214.509h-67.59c-0.324,0-0.587-0.263-0.587-0.587l0,0c0-0.325,0.263-0.587,0.587-0.587
						h67.59c0.324,0,0.587,0.263,0.587,0.587l0,0C122.993,214.246,122.73,214.509,122.406,214.509z"/>
					<path style="fill:#D4B26E;" d="M122.406,217.763h-67.59c-0.324,0-0.587-0.263-0.587-0.587l0,0c0-0.324,0.263-0.587,0.587-0.587
						h67.59c0.324,0,0.587,0.263,0.587,0.587l0,0C122.993,217.5,122.73,217.763,122.406,217.763z"/>
					<path style="fill:#D4B26E;" d="M122.406,221.016h-67.59c-0.324,0-0.587-0.263-0.587-0.587l0,0c0-0.324,0.263-0.587,0.587-0.587
						h67.59c0.324,0,0.587,0.263,0.587,0.587l0,0C122.993,220.753,122.73,221.016,122.406,221.016z"/>
					<path style="fill:#D4B26E;" d="M122.406,224.27h-67.59c-0.324,0-0.587-0.263-0.587-0.587l0,0c0-0.324,0.263-0.587,0.587-0.587
						h67.59c0.324,0,0.587,0.263,0.587,0.587l0,0C122.993,224.007,122.73,224.27,122.406,224.27z"/>
					<path style="fill:#D4B26E;" d="M122.406,227.524h-67.59c-0.324,0-0.587-0.263-0.587-0.587l0,0c0-0.324,0.263-0.587,0.587-0.587
						h67.59c0.324,0,0.587,0.263,0.587,0.587l0,0C122.993,227.261,122.73,227.524,122.406,227.524z"/>
				</g>
				<g>
					<path style="fill:#D4B26E;" d="M122.406,239.628h-67.59c-0.324,0-0.587-0.263-0.587-0.587l0,0c0-0.324,0.263-0.587,0.587-0.587
						h67.59c0.324,0,0.587,0.263,0.587,0.587l0,0C122.993,239.365,122.73,239.628,122.406,239.628z"/>
					<path style="fill:#D4B26E;" d="M122.406,242.882h-67.59c-0.324,0-0.587-0.263-0.587-0.587l0,0c0-0.324,0.263-0.587,0.587-0.587
						h67.59c0.324,0,0.587,0.263,0.587,0.587l0,0C122.993,242.619,122.73,242.882,122.406,242.882z"/>
					<path style="fill:#D4B26E;" d="M122.406,246.135h-67.59c-0.324,0-0.587-0.263-0.587-0.587l0,0c0-0.324,0.263-0.587,0.587-0.587
						h67.59c0.324,0,0.587,0.263,0.587,0.587l0,0C122.993,245.872,122.73,246.135,122.406,246.135z"/>
					<path style="fill:#D4B26E;" d="M122.406,249.389h-67.59c-0.324,0-0.587-0.263-0.587-0.587l0,0c0-0.324,0.263-0.587,0.587-0.587
						h67.59c0.324,0,0.587,0.263,0.587,0.587l0,0C122.993,249.126,122.73,249.389,122.406,249.389z"/>
					<path style="fill:#D4B26E;" d="M122.406,252.643h-67.59c-0.324,0-0.587-0.263-0.587-0.587l0,0c0-0.324,0.263-0.587,0.587-0.587
						h67.59c0.324,0,0.587,0.263,0.587,0.587l0,0C122.993,252.38,122.73,252.643,122.406,252.643z"/>
					<path style="fill:#D4B26E;" d="M122.406,255.896h-67.59c-0.324,0-0.587-0.263-0.587-0.587l0,0c0-0.324,0.263-0.587,0.587-0.587
						h67.59c0.324,0,0.587,0.263,0.587,0.587l0,0C122.993,255.633,122.73,255.896,122.406,255.896z"/>
					<path style="fill:#D4B26E;" d="M122.406,259.15h-67.59c-0.324,0-0.587-0.263-0.587-0.587l0,0c0-0.324,0.263-0.587,0.587-0.587
						h67.59c0.324,0,0.587,0.263,0.587,0.587l0,0C122.993,258.887,122.73,259.15,122.406,259.15z"/>
					<path style="fill:#D4B26E;" d="M122.406,262.404h-67.59c-0.324,0-0.587-0.263-0.587-0.587l0,0c0-0.324,0.263-0.587,0.587-0.587
						h67.59c0.324,0,0.587,0.263,0.587,0.587l0,0C122.993,262.141,122.73,262.404,122.406,262.404z"/>
					<path style="fill:#D4B26E;" d="M122.406,265.657h-67.59c-0.324,0-0.587-0.263-0.587-0.587l0,0c0-0.324,0.263-0.587,0.587-0.587
						h67.59c0.324,0,0.587,0.263,0.587,0.587l0,0C122.993,265.394,122.73,265.657,122.406,265.657z"/>
					<path style="fill:#D4B26E;" d="M122.406,268.911h-67.59c-0.324,0-0.587-0.263-0.587-0.587l0,0c0-0.324,0.263-0.587,0.587-0.587
						h67.59c0.324,0,0.587,0.263,0.587,0.587l0,0C122.993,268.648,122.73,268.911,122.406,268.911z"/>
				</g>
				<g>
					<path style="fill:#D4B26E;" d="M122.406,281.015h-67.59c-0.324,0-0.587-0.263-0.587-0.587l0,0c0-0.324,0.263-0.587,0.587-0.587
						h67.59c0.324,0,0.587,0.263,0.587,0.587l0,0C122.993,280.752,122.73,281.015,122.406,281.015z"/>
					<path style="fill:#D4B26E;" d="M122.406,284.269h-67.59c-0.324,0-0.587-0.263-0.587-0.587l0,0c0-0.324,0.263-0.587,0.587-0.587
						h67.59c0.324,0,0.587,0.263,0.587,0.587l0,0C122.993,284.006,122.73,284.269,122.406,284.269z"/>
					<path style="fill:#D4B26E;" d="M122.406,287.522h-67.59c-0.324,0-0.587-0.263-0.587-0.587l0,0c0-0.324,0.263-0.587,0.587-0.587
						h67.59c0.324,0,0.587,0.263,0.587,0.587l0,0C122.993,287.259,122.73,287.522,122.406,287.522z"/>
					<path style="fill:#D4B26E;" d="M122.406,290.776h-67.59c-0.324,0-0.587-0.263-0.587-0.587l0,0c0-0.324,0.263-0.587,0.587-0.587
						h67.59c0.324,0,0.587,0.263,0.587,0.587l0,0C122.993,290.513,122.73,290.776,122.406,290.776z"/>
					<path style="fill:#D4B26E;" d="M122.406,294.03h-67.59c-0.324,0-0.587-0.263-0.587-0.587l0,0c0-0.324,0.263-0.587,0.587-0.587
						h67.59c0.324,0,0.587,0.263,0.587,0.587l0,0C122.993,293.767,122.73,294.03,122.406,294.03z"/>
					<path style="fill:#D4B26E;" d="M122.406,297.283h-67.59c-0.324,0-0.587-0.263-0.587-0.587l0,0c0-0.324,0.263-0.587,0.587-0.587
						h67.59c0.324,0,0.587,0.263,0.587,0.587l0,0C122.993,297.02,122.73,297.283,122.406,297.283z"/>
					<path style="fill:#D4B26E;" d="M122.406,300.537h-67.59c-0.324,0-0.587-0.263-0.587-0.587l0,0c0-0.324,0.263-0.587,0.587-0.587
						h67.59c0.324,0,0.587,0.263,0.587,0.587l0,0C122.993,300.274,122.73,300.537,122.406,300.537z"/>
					<path style="fill:#D4B26E;" d="M122.406,303.79h-67.59c-0.324,0-0.587-0.263-0.587-0.587l0,0c0-0.324,0.263-0.587,0.587-0.587
						h67.59c0.324,0,0.587,0.263,0.587,0.587l0,0C122.993,303.527,122.73,303.79,122.406,303.79z"/>
					<path style="fill:#D4B26E;" d="M122.406,307.044h-67.59c-0.324,0-0.587-0.263-0.587-0.587l0,0c0-0.324,0.263-0.587,0.587-0.587
						h67.59c0.324,0,0.587,0.263,0.587,0.587l0,0C122.993,306.781,122.73,307.044,122.406,307.044z"/>
					<path style="fill:#D4B26E;" d="M122.406,310.298h-67.59c-0.324,0-0.587-0.263-0.587-0.587l0,0c0-0.324,0.263-0.587,0.587-0.587
						h67.59c0.324,0,0.587,0.263,0.587,0.587l0,0C122.993,310.035,122.73,310.298,122.406,310.298z"/>
				</g>
			</g>
			<g>
				<g>
					<path style="fill:#D4B26E;" d="M206.715,115.467h-67.59c-0.324,0-0.587-0.263-0.587-0.587l0,0c0-0.324,0.263-0.587,0.587-0.587
						h67.59c0.324,0,0.587,0.263,0.587,0.587l0,0C207.302,115.204,207.039,115.467,206.715,115.467z"/>
					<path style="fill:#D4B26E;" d="M206.715,118.721h-67.59c-0.324,0-0.587-0.263-0.587-0.587l0,0c0-0.325,0.263-0.587,0.587-0.587
						h67.59c0.324,0,0.587,0.263,0.587,0.587l0,0C207.302,118.458,207.039,118.721,206.715,118.721z"/>
					<path style="fill:#D4B26E;" d="M206.715,121.975h-67.59c-0.324,0-0.587-0.263-0.587-0.587l0,0c0-0.324,0.263-0.587,0.587-0.587
						h67.59c0.324,0,0.587,0.263,0.587,0.587l0,0C207.302,121.712,207.039,121.975,206.715,121.975z"/>
					<path style="fill:#D4B26E;" d="M206.715,125.228h-67.59c-0.324,0-0.587-0.263-0.587-0.587l0,0c0-0.324,0.263-0.587,0.587-0.587
						h67.59c0.324,0,0.587,0.263,0.587,0.587l0,0C207.302,124.965,207.039,125.228,206.715,125.228z"/>
					<path style="fill:#D4B26E;" d="M206.715,128.482h-67.59c-0.324,0-0.587-0.263-0.587-0.587l0,0c0-0.324,0.263-0.587,0.587-0.587
						h67.59c0.324,0,0.587,0.263,0.587,0.587l0,0C207.302,128.219,207.039,128.482,206.715,128.482z"/>
					<path style="fill:#D4B26E;" d="M206.715,131.735h-67.59c-0.324,0-0.587-0.263-0.587-0.587l0,0c0-0.324,0.263-0.587,0.587-0.587
						h67.59c0.324,0,0.587,0.263,0.587,0.587l0,0C207.302,131.472,207.039,131.735,206.715,131.735z"/>
					<path style="fill:#D4B26E;" d="M206.715,134.989h-67.59c-0.324,0-0.587-0.263-0.587-0.587l0,0c0-0.324,0.263-0.587,0.587-0.587
						h67.59c0.324,0,0.587,0.263,0.587,0.587l0,0C207.302,134.726,207.039,134.989,206.715,134.989z"/>
					<path style="fill:#D4B26E;" d="M206.715,138.243h-67.59c-0.324,0-0.587-0.263-0.587-0.587l0,0c0-0.324,0.263-0.587,0.587-0.587
						h67.59c0.324,0,0.587,0.263,0.587,0.587l0,0C207.302,137.98,207.039,138.243,206.715,138.243z"/>
					<path style="fill:#D4B26E;" d="M206.715,141.496h-67.59c-0.324,0-0.587-0.263-0.587-0.587l0,0c0-0.324,0.263-0.587,0.587-0.587
						h67.59c0.324,0,0.587,0.263,0.587,0.587l0,0C207.302,141.233,207.039,141.496,206.715,141.496z"/>
					<path style="fill:#D4B26E;" d="M206.715,144.75h-67.59c-0.324,0-0.587-0.263-0.587-0.587l0,0c0-0.324,0.263-0.587,0.587-0.587
						h67.59c0.324,0,0.587,0.263,0.587,0.587l0,0C207.302,144.487,207.039,144.75,206.715,144.75z"/>
				</g>
				<g>
					<path style="fill:#D4B26E;" d="M206.715,156.854h-67.59c-0.324,0-0.587-0.263-0.587-0.587l0,0c0-0.324,0.263-0.587,0.587-0.587
						h67.59c0.324,0,0.587,0.263,0.587,0.587l0,0C207.302,156.591,207.039,156.854,206.715,156.854z"/>
					<path style="fill:#D4B26E;" d="M206.715,160.108h-67.59c-0.324,0-0.587-0.263-0.587-0.587l0,0c0-0.324,0.263-0.587,0.587-0.587
						h67.59c0.324,0,0.587,0.263,0.587,0.587l0,0C207.302,159.845,207.039,160.108,206.715,160.108z"/>
					<path style="fill:#D4B26E;" d="M206.715,163.361h-67.59c-0.324,0-0.587-0.263-0.587-0.587l0,0c0-0.324,0.263-0.587,0.587-0.587
						h67.59c0.324,0,0.587,0.263,0.587,0.587l0,0C207.302,163.098,207.039,163.361,206.715,163.361z"/>
					<path style="fill:#D4B26E;" d="M206.715,166.615h-67.59c-0.324,0-0.587-0.263-0.587-0.587l0,0c0-0.324,0.263-0.587,0.587-0.587
						h67.59c0.324,0,0.587,0.263,0.587,0.587l0,0C207.302,166.352,207.039,166.615,206.715,166.615z"/>
					<path style="fill:#D4B26E;" d="M206.715,169.869h-67.59c-0.324,0-0.587-0.263-0.587-0.587l0,0c0-0.324,0.263-0.587,0.587-0.587
						h67.59c0.324,0,0.587,0.263,0.587,0.587l0,0C207.302,169.606,207.039,169.869,206.715,169.869z"/>
					<path style="fill:#D4B26E;" d="M206.715,173.122h-67.59c-0.324,0-0.587-0.263-0.587-0.587l0,0c0-0.324,0.263-0.587,0.587-0.587
						h67.59c0.324,0,0.587,0.263,0.587,0.587l0,0C207.302,172.859,207.039,173.122,206.715,173.122z"/>
					<path style="fill:#D4B26E;" d="M206.715,176.376h-67.59c-0.324,0-0.587-0.263-0.587-0.587l0,0c0-0.324,0.263-0.587,0.587-0.587
						h67.59c0.324,0,0.587,0.263,0.587,0.587l0,0C207.302,176.113,207.039,176.376,206.715,176.376z"/>
					<path style="fill:#D4B26E;" d="M206.715,179.63h-67.59c-0.324,0-0.587-0.263-0.587-0.587l0,0c0-0.324,0.263-0.587,0.587-0.587
						h67.59c0.324,0,0.587,0.263,0.587,0.587l0,0C207.302,179.367,207.039,179.63,206.715,179.63z"/>
					<path style="fill:#D4B26E;" d="M206.715,182.883h-67.59c-0.324,0-0.587-0.263-0.587-0.587l0,0c0-0.325,0.263-0.587,0.587-0.587
						h67.59c0.324,0,0.587,0.263,0.587,0.587l0,0C207.302,182.62,207.039,182.883,206.715,182.883z"/>
					<path style="fill:#D4B26E;" d="M206.715,186.137h-67.59c-0.324,0-0.587-0.263-0.587-0.587l0,0c0-0.324,0.263-0.587,0.587-0.587
						h67.59c0.324,0,0.587,0.263,0.587,0.587l0,0C207.302,185.874,207.039,186.137,206.715,186.137z"/>
				</g>
				<g>
					<path style="fill:#D4B26E;" d="M206.715,198.241h-67.59c-0.324,0-0.587-0.263-0.587-0.587l0,0c0-0.324,0.263-0.587,0.587-0.587
						h67.59c0.324,0,0.587,0.263,0.587,0.587l0,0C207.302,197.978,207.039,198.241,206.715,198.241z"/>
					<path style="fill:#D4B26E;" d="M206.715,201.495h-67.59c-0.324,0-0.587-0.263-0.587-0.587l0,0c0-0.324,0.263-0.587,0.587-0.587
						h67.59c0.324,0,0.587,0.263,0.587,0.587l0,0C207.302,201.232,207.039,201.495,206.715,201.495z"/>
					<path style="fill:#D4B26E;" d="M206.715,204.748h-67.59c-0.324,0-0.587-0.263-0.587-0.587l0,0c0-0.324,0.263-0.587,0.587-0.587
						h67.59c0.324,0,0.587,0.263,0.587,0.587l0,0C207.302,204.485,207.039,204.748,206.715,204.748z"/>
					<path style="fill:#D4B26E;" d="M206.715,208.002h-67.59c-0.324,0-0.587-0.263-0.587-0.587l0,0c0-0.324,0.263-0.587,0.587-0.587
						h67.59c0.324,0,0.587,0.263,0.587,0.587l0,0C207.302,207.739,207.039,208.002,206.715,208.002z"/>
					<path style="fill:#D4B26E;" d="M206.715,211.256h-67.59c-0.324,0-0.587-0.263-0.587-0.587l0,0c0-0.324,0.263-0.587,0.587-0.587
						h67.59c0.324,0,0.587,0.263,0.587,0.587l0,0C207.302,210.993,207.039,211.256,206.715,211.256z"/>
					<path style="fill:#D4B26E;" d="M206.715,214.509h-67.59c-0.324,0-0.587-0.263-0.587-0.587l0,0c0-0.325,0.263-0.587,0.587-0.587
						h67.59c0.324,0,0.587,0.263,0.587,0.587l0,0C207.302,214.246,207.039,214.509,206.715,214.509z"/>
					<path style="fill:#D4B26E;" d="M206.715,217.763h-67.59c-0.324,0-0.587-0.263-0.587-0.587l0,0c0-0.324,0.263-0.587,0.587-0.587
						h67.59c0.324,0,0.587,0.263,0.587,0.587l0,0C207.302,217.5,207.039,217.763,206.715,217.763z"/>
					<path style="fill:#D4B26E;" d="M206.715,221.016h-67.59c-0.324,0-0.587-0.263-0.587-0.587l0,0c0-0.324,0.263-0.587,0.587-0.587
						h67.59c0.324,0,0.587,0.263,0.587,0.587l0,0C207.302,220.753,207.039,221.016,206.715,221.016z"/>
					<path style="fill:#D4B26E;" d="M206.715,224.27h-67.59c-0.324,0-0.587-0.263-0.587-0.587l0,0c0-0.324,0.263-0.587,0.587-0.587
						h67.59c0.324,0,0.587,0.263,0.587,0.587l0,0C207.302,224.007,207.039,224.27,206.715,224.27z"/>
					<path style="fill:#D4B26E;" d="M206.715,227.524h-67.59c-0.324,0-0.587-0.263-0.587-0.587l0,0c0-0.324,0.263-0.587,0.587-0.587
						h67.59c0.324,0,0.587,0.263,0.587,0.587l0,0C207.302,227.261,207.039,227.524,206.715,227.524z"/>
				</g>
				<g>
					<path style="fill:#D4B26E;" d="M206.715,239.628h-67.59c-0.324,0-0.587-0.263-0.587-0.587l0,0c0-0.324,0.263-0.587,0.587-0.587
						h67.59c0.324,0,0.587,0.263,0.587,0.587l0,0C207.302,239.365,207.039,239.628,206.715,239.628z"/>
					<path style="fill:#D4B26E;" d="M206.715,242.882h-67.59c-0.324,0-0.587-0.263-0.587-0.587l0,0c0-0.324,0.263-0.587,0.587-0.587
						h67.59c0.324,0,0.587,0.263,0.587,0.587l0,0C207.302,242.619,207.039,242.882,206.715,242.882z"/>
					<path style="fill:#D4B26E;" d="M206.715,246.135h-67.59c-0.324,0-0.587-0.263-0.587-0.587l0,0c0-0.324,0.263-0.587,0.587-0.587
						h67.59c0.324,0,0.587,0.263,0.587,0.587l0,0C207.302,245.872,207.039,246.135,206.715,246.135z"/>
					<path style="fill:#D4B26E;" d="M206.715,249.389h-67.59c-0.324,0-0.587-0.263-0.587-0.587l0,0c0-0.324,0.263-0.587,0.587-0.587
						h67.59c0.324,0,0.587,0.263,0.587,0.587l0,0C207.302,249.126,207.039,249.389,206.715,249.389z"/>
					<path style="fill:#D4B26E;" d="M206.715,252.643h-67.59c-0.324,0-0.587-0.263-0.587-0.587l0,0c0-0.324,0.263-0.587,0.587-0.587
						h67.59c0.324,0,0.587,0.263,0.587,0.587l0,0C207.302,252.38,207.039,252.643,206.715,252.643z"/>
					<path style="fill:#D4B26E;" d="M206.715,255.896h-67.59c-0.324,0-0.587-0.263-0.587-0.587l0,0c0-0.324,0.263-0.587,0.587-0.587
						h67.59c0.324,0,0.587,0.263,0.587,0.587l0,0C207.302,255.633,207.039,255.896,206.715,255.896z"/>
					<path style="fill:#D4B26E;" d="M206.715,259.15h-67.59c-0.324,0-0.587-0.263-0.587-0.587l0,0c0-0.324,0.263-0.587,0.587-0.587
						h67.59c0.324,0,0.587,0.263,0.587,0.587l0,0C207.302,258.887,207.039,259.15,206.715,259.15z"/>
					<path style="fill:#D4B26E;" d="M206.715,262.404h-67.59c-0.324,0-0.587-0.263-0.587-0.587l0,0c0-0.324,0.263-0.587,0.587-0.587
						h67.59c0.324,0,0.587,0.263,0.587,0.587l0,0C207.302,262.141,207.039,262.404,206.715,262.404z"/>
					<path style="fill:#D4B26E;" d="M206.715,265.657h-67.59c-0.324,0-0.587-0.263-0.587-0.587l0,0c0-0.324,0.263-0.587,0.587-0.587
						h67.59c0.324,0,0.587,0.263,0.587,0.587l0,0C207.302,265.394,207.039,265.657,206.715,265.657z"/>
					<path style="fill:#D4B26E;" d="M206.715,268.911h-67.59c-0.324,0-0.587-0.263-0.587-0.587l0,0c0-0.324,0.263-0.587,0.587-0.587
						h67.59c0.324,0,0.587,0.263,0.587,0.587l0,0C207.302,268.648,207.039,268.911,206.715,268.911z"/>
				</g>
				<g>
					<path style="fill:#D4B26E;" d="M206.715,281.015h-67.59c-0.324,0-0.587-0.263-0.587-0.587l0,0c0-0.324,0.263-0.587,0.587-0.587
						h67.59c0.324,0,0.587,0.263,0.587,0.587l0,0C207.302,280.752,207.039,281.015,206.715,281.015z"/>
					<path style="fill:#D4B26E;" d="M206.715,284.269h-67.59c-0.324,0-0.587-0.263-0.587-0.587l0,0c0-0.324,0.263-0.587,0.587-0.587
						h67.59c0.324,0,0.587,0.263,0.587,0.587l0,0C207.302,284.006,207.039,284.269,206.715,284.269z"/>
					<path style="fill:#D4B26E;" d="M206.715,287.522h-67.59c-0.324,0-0.587-0.263-0.587-0.587l0,0c0-0.324,0.263-0.587,0.587-0.587
						h67.59c0.324,0,0.587,0.263,0.587,0.587l0,0C207.302,287.259,207.039,287.522,206.715,287.522z"/>
					<path style="fill:#D4B26E;" d="M206.715,290.776h-67.59c-0.324,0-0.587-0.263-0.587-0.587l0,0c0-0.324,0.263-0.587,0.587-0.587
						h67.59c0.324,0,0.587,0.263,0.587,0.587l0,0C207.302,290.513,207.039,290.776,206.715,290.776z"/>
					<path style="fill:#D4B26E;" d="M206.715,294.03h-67.59c-0.324,0-0.587-0.263-0.587-0.587l0,0c0-0.324,0.263-0.587,0.587-0.587
						h67.59c0.324,0,0.587,0.263,0.587,0.587l0,0C207.302,293.767,207.039,294.03,206.715,294.03z"/>
					<path style="fill:#D4B26E;" d="M206.715,297.283h-67.59c-0.324,0-0.587-0.263-0.587-0.587l0,0c0-0.324,0.263-0.587,0.587-0.587
						h67.59c0.324,0,0.587,0.263,0.587,0.587l0,0C207.302,297.02,207.039,297.283,206.715,297.283z"/>
					<path style="fill:#D4B26E;" d="M206.715,300.537h-67.59c-0.324,0-0.587-0.263-0.587-0.587l0,0c0-0.324,0.263-0.587,0.587-0.587
						h67.59c0.324,0,0.587,0.263,0.587,0.587l0,0C207.302,300.274,207.039,300.537,206.715,300.537z"/>
					<path style="fill:#D4B26E;" d="M206.715,303.79h-67.59c-0.324,0-0.587-0.263-0.587-0.587l0,0c0-0.324,0.263-0.587,0.587-0.587
						h67.59c0.324,0,0.587,0.263,0.587,0.587l0,0C207.302,303.527,207.039,303.79,206.715,303.79z"/>
					<path style="fill:#D4B26E;" d="M206.715,307.044h-67.59c-0.324,0-0.587-0.263-0.587-0.587l0,0c0-0.324,0.263-0.587,0.587-0.587
						h67.59c0.324,0,0.587,0.263,0.587,0.587l0,0C207.302,306.781,207.039,307.044,206.715,307.044z"/>
					<path style="fill:#D4B26E;" d="M206.715,310.298h-67.59c-0.324,0-0.587-0.263-0.587-0.587l0,0c0-0.324,0.263-0.587,0.587-0.587
						h67.59c0.324,0,0.587,0.263,0.587,0.587l0,0C207.302,310.035,207.039,310.298,206.715,310.298z"/>
				</g>
			</g>
			<g>
				<path style="fill:#D4B26E;" d="M82.657,107.726v-0.46c0.612-0.061,1.134-0.241,1.563-0.54c0.429-0.299,0.759-0.809,0.988-1.528
					c0.231-0.721,0.345-1.732,0.345-3.034V89.568c0-0.567-0.042-0.984-0.126-1.253c-0.085-0.268-0.249-0.452-0.494-0.551
					c-0.245-0.1-0.613-0.157-1.103-0.172v-0.46c0.383,0.016,0.885,0.031,1.506,0.046c0.62,0.016,1.275,0.023,1.965,0.023
					c0.689,0,1.359-0.007,2.012-0.023c0.65-0.015,1.191-0.03,1.62-0.046v0.46c-0.476,0.015-0.839,0.073-1.092,0.172
					c-0.253,0.1-0.422,0.284-0.506,0.551c-0.084,0.269-0.126,0.686-0.126,1.253v8.413c0,0.628,0,1.307,0,2.034
					c0,0.728-0.027,1.436-0.081,2.126c-0.054,0.689-0.157,1.302-0.311,1.839c-0.307,1.057-0.969,1.946-1.987,2.666
					C85.809,107.366,84.419,107.726,82.657,107.726z"/>
				<path style="fill:#D4B26E;" d="M107.894,87.131v0.46c-0.49,0.061-0.862,0.188-1.114,0.379c-0.253,0.192-0.418,0.494-0.495,0.908
					c-0.076,0.414-0.114,0.996-0.114,1.747v6.091c0,0.996-0.069,1.908-0.207,2.735c-0.138,0.828-0.383,1.54-0.735,2.138
					c-0.398,0.659-0.981,1.18-1.747,1.563c-0.767,0.383-1.739,0.575-2.919,0.575c-0.705,0-1.425-0.081-2.161-0.241
					c-0.735-0.161-1.395-0.463-1.977-0.908c-0.49-0.414-0.865-0.881-1.126-1.402c-0.261-0.521-0.437-1.138-0.528-1.85
					c-0.092-0.713-0.139-1.559-0.139-2.54v-7.217c0-0.567-0.042-0.984-0.126-1.253c-0.084-0.268-0.249-0.452-0.494-0.551
					c-0.245-0.1-0.613-0.157-1.104-0.172v-0.46c0.383,0.016,0.9,0.031,1.552,0.046c0.651,0.016,1.329,0.023,2.034,0.023
					c0.704,0,1.383-0.007,2.034-0.023c0.651-0.015,1.191-0.03,1.62-0.046v0.46c-0.521,0.015-0.916,0.073-1.184,0.172
					c-0.269,0.1-0.448,0.284-0.54,0.551c-0.092,0.269-0.138,0.686-0.138,1.253v8.665c0,1.026,0.092,1.889,0.275,2.586
					c0.184,0.698,0.51,1.222,0.978,1.575c0.467,0.353,1.106,0.528,1.919,0.528c1.072,0,1.911-0.252,2.517-0.758
					c0.606-0.506,1.034-1.206,1.287-2.103s0.379-1.927,0.379-3.091v-6.068c0-0.842-0.054-1.49-0.16-1.942
					c-0.108-0.452-0.318-0.777-0.633-0.977c-0.313-0.199-0.793-0.33-1.437-0.391v-0.46c0.291,0.016,0.675,0.031,1.149,0.046
					c0.475,0.016,0.92,0.023,1.333,0.023c0.368,0,0.733-0.007,1.092-0.023C107.347,87.162,107.649,87.147,107.894,87.131z"/>
				<path style="fill:#D4B26E;" d="M115.755,86.832c0.904,0,1.602,0.096,2.092,0.288c0.49,0.191,0.912,0.395,1.265,0.609
					c0.184,0.108,0.333,0.188,0.448,0.241c0.114,0.054,0.226,0.081,0.333,0.081c0.245,0,0.414-0.337,0.506-1.011h0.528
					c-0.016,0.291-0.034,0.64-0.058,1.046c-0.022,0.406-0.038,0.939-0.046,1.597c-0.008,0.659-0.012,1.525-0.012,2.598h-0.528
					c-0.062-0.797-0.245-1.571-0.552-2.322c-0.307-0.75-0.739-1.368-1.299-1.85c-0.559-0.483-1.245-0.724-2.057-0.724
					c-0.735,0-1.341,0.207-1.816,0.621c-0.475,0.414-0.712,0.988-0.712,1.724c0,0.613,0.153,1.138,0.46,1.575
					c0.306,0.437,0.754,0.862,1.344,1.276c0.59,0.414,1.307,0.912,2.149,1.494c0.735,0.475,1.395,0.95,1.977,1.425
					c0.582,0.475,1.05,1.011,1.402,1.609c0.353,0.598,0.528,1.31,0.528,2.138c0,1.011-0.264,1.847-0.793,2.505
					c-0.528,0.659-1.222,1.153-2.08,1.482c-0.858,0.329-1.801,0.494-2.827,0.494c-0.95,0-1.709-0.092-2.275-0.276
					c-0.567-0.184-1.042-0.375-1.425-0.575c-0.337-0.214-0.598-0.322-0.781-0.322c-0.246,0-0.414,0.337-0.506,1.012h-0.528
					c0.03-0.368,0.049-0.797,0.057-1.288c0.008-0.49,0.016-1.13,0.023-1.919c0.008-0.789,0.012-1.789,0.012-2.999h0.528
					c0.062,1.011,0.233,1.957,0.518,2.838c0.283,0.881,0.72,1.59,1.31,2.126c0.59,0.536,1.375,0.804,2.356,0.804
					c0.796,0,1.471-0.214,2.022-0.644c0.552-0.429,0.827-1.072,0.827-1.931c0-0.95-0.321-1.735-0.965-2.356
					c-0.644-0.621-1.472-1.26-2.482-1.92c-0.721-0.475-1.395-0.95-2.023-1.425c-0.628-0.475-1.13-1.019-1.505-1.632
					c-0.376-0.613-0.563-1.341-0.563-2.184c0-0.965,0.241-1.758,0.725-2.379c0.482-0.621,1.118-1.081,1.907-1.379
					C114.027,86.982,114.866,86.832,115.755,86.832z"/>
				<path style="fill:#D4B26E;" d="M138.326,87.131c-0.061,0.782-0.102,1.533-0.126,2.252c-0.022,0.721-0.034,1.272-0.034,1.655
					c0,0.337,0.007,0.659,0.023,0.965c0.016,0.307,0.031,0.567,0.046,0.781h-0.528c-0.245-1.287-0.556-2.306-0.931-3.057
					c-0.376-0.75-0.824-1.283-1.345-1.597c-0.521-0.314-1.134-0.471-1.839-0.471h-0.528v13.124c0,0.613,0.064,1.073,0.195,1.379
					c0.13,0.307,0.371,0.51,0.724,0.609c0.353,0.1,0.865,0.158,1.54,0.173v0.46c-0.476-0.015-1.107-0.031-1.896-0.046
					c-0.789-0.015-1.612-0.023-2.471-0.023c-0.843,0-1.64,0.008-2.391,0.023c-0.751,0.015-1.356,0.031-1.816,0.046v-0.46
					c0.689-0.015,1.21-0.073,1.563-0.173c0.353-0.099,0.59-0.302,0.713-0.609c0.122-0.306,0.184-0.766,0.184-1.379V87.66h-0.506
					c-0.704,0-1.317,0.157-1.838,0.471c-0.521,0.314-0.966,0.843-1.334,1.586c-0.367,0.743-0.689,1.766-0.965,3.068h-0.528
					c0.03-0.214,0.049-0.475,0.057-0.781c0.008-0.307,0.012-0.628,0.012-0.965c0-0.383-0.012-0.935-0.034-1.655
					c-0.023-0.72-0.065-1.471-0.127-2.252c0.705,0.016,1.475,0.031,2.311,0.046c0.835,0.016,1.674,0.023,2.517,0.023
					c0.843,0,1.602,0,2.275,0c0.689,0,1.452,0,2.287,0c0.835,0,1.674-0.007,2.517-0.023
					C136.893,87.162,137.652,87.147,138.326,87.131z"/>
				<path style="fill:#D4B26E;" d="M147.727,87.131v0.46c-0.49,0.015-0.862,0.073-1.114,0.172c-0.253,0.1-0.418,0.284-0.495,0.551
					c-0.076,0.269-0.114,0.686-0.114,1.253v11.4c0,0.552,0.042,0.965,0.126,1.241c0.084,0.276,0.253,0.46,0.506,0.552
					c0.253,0.092,0.617,0.153,1.092,0.184v0.46c-0.414-0.031-0.935-0.05-1.563-0.058c-0.629-0.007-1.265-0.011-1.908-0.011
					c-0.735,0-1.425,0.004-2.068,0.011c-0.644,0.008-1.165,0.027-1.564,0.058v-0.46c0.49-0.031,0.858-0.092,1.104-0.184
					c0.245-0.092,0.41-0.276,0.494-0.552c0.084-0.276,0.126-0.689,0.126-1.241v-11.4c0-0.567-0.042-0.984-0.126-1.253
					c-0.084-0.268-0.253-0.452-0.506-0.551c-0.253-0.1-0.617-0.157-1.092-0.172v-0.46c0.398,0.016,0.92,0.031,1.564,0.046
					c0.643,0.016,1.333,0.023,2.068,0.023c0.644,0,1.279-0.007,1.908-0.023C146.793,87.162,147.313,87.147,147.727,87.131z"/>
				<path style="fill:#D4B26E;" d="M158.346,86.809c1.012,0,1.843,0.149,2.494,0.448c0.651,0.299,1.229,0.647,1.735,1.046
					c0.306,0.23,0.54,0.257,0.701,0.081c0.16-0.176,0.271-0.594,0.333-1.253h0.528c-0.03,0.598-0.054,1.322-0.068,2.172
					c-0.016,0.85-0.023,1.98-0.023,3.39h-0.528c-0.077-0.705-0.177-1.306-0.299-1.804c-0.123-0.498-0.291-0.939-0.506-1.322
					c-0.215-0.383-0.521-0.728-0.919-1.034c-0.384-0.383-0.828-0.667-1.334-0.851c-0.505-0.184-1.034-0.276-1.586-0.276
					c-0.827,0-1.532,0.218-2.114,0.655c-0.582,0.437-1.054,1.031-1.413,1.781c-0.36,0.751-0.625,1.597-0.794,2.54
					c-0.168,0.942-0.252,1.919-0.252,2.931c0,1.027,0.088,2.011,0.264,2.954c0.176,0.942,0.452,1.781,0.828,2.517
					c0.375,0.735,0.861,1.318,1.459,1.747c0.598,0.429,1.303,0.644,2.115,0.644c0.505,0,1.015-0.095,1.528-0.287
					c0.513-0.191,0.953-0.471,1.321-0.839c0.598-0.46,1.004-1.031,1.218-1.712c0.215-0.682,0.376-1.59,0.483-2.724h0.528
					c0,1.456,0.008,2.631,0.023,3.528c0.015,0.896,0.038,1.651,0.068,2.264h-0.528c-0.062-0.659-0.165-1.072-0.311-1.241
					c-0.145-0.168-0.387-0.146-0.724,0.069c-0.567,0.399-1.169,0.747-1.805,1.046c-0.636,0.299-1.452,0.448-2.448,0.448
					c-1.624,0-3.045-0.329-4.264-0.988c-1.218-0.659-2.164-1.609-2.838-2.85c-0.675-1.241-1.012-2.735-1.012-4.482
					c0-1.716,0.349-3.218,1.046-4.505c0.697-1.287,1.655-2.291,2.873-3.011C155.347,87.17,156.752,86.809,158.346,86.809z"/>
				<path style="fill:#D4B26E;" d="M179.423,87.131c-0.062,0.674-0.104,1.326-0.126,1.954c-0.023,0.629-0.034,1.111-0.034,1.448
					c0,0.307,0.007,0.598,0.023,0.874c0.016,0.276,0.03,0.505,0.046,0.689h-0.528c-0.153-1.118-0.391-2.003-0.713-2.655
					c-0.321-0.651-0.739-1.111-1.253-1.379c-0.513-0.268-1.114-0.402-1.804-0.402h-0.942c-0.46,0-0.801,0.039-1.023,0.115
					c-0.222,0.077-0.371,0.227-0.448,0.448c-0.076,0.222-0.114,0.579-0.114,1.069v11.952c0,0.475,0.038,0.828,0.114,1.057
					c0.077,0.23,0.227,0.383,0.448,0.46c0.223,0.077,0.564,0.115,1.023,0.115h1.126c0.689,0,1.299-0.149,1.827-0.448
					c0.529-0.299,0.98-0.808,1.356-1.528c0.375-0.72,0.662-1.693,0.862-2.919h0.528c-0.046,0.49-0.069,1.134-0.069,1.931
					c0,0.352,0.008,0.85,0.023,1.494c0.015,0.644,0.061,1.31,0.138,2c-0.781-0.031-1.663-0.05-2.643-0.058
					c-0.98-0.007-1.854-0.011-2.62-0.011c-0.521,0-1.211,0-2.068,0c-0.858,0-1.77,0.004-2.735,0.011
					c-0.966,0.008-1.861,0.027-2.689,0.058v-0.46c0.49-0.031,0.858-0.092,1.104-0.184c0.245-0.092,0.41-0.276,0.494-0.552
					c0.084-0.276,0.126-0.689,0.126-1.241v-11.4c0-0.567-0.042-0.984-0.126-1.253c-0.084-0.268-0.253-0.452-0.506-0.551
					c-0.253-0.1-0.617-0.157-1.092-0.172v-0.46c0.828,0.016,1.724,0.031,2.689,0.046c0.966,0.016,1.877,0.023,2.735,0.023
					c0.857,0,1.548,0,2.068,0c0.705,0,1.506-0.003,2.402-0.011C177.918,87.181,178.718,87.162,179.423,87.131z M175.838,94.992v0.46
					h-4.023v-0.46H175.838z M176.504,91.958c-0.062,0.873-0.088,1.54-0.08,2c0.008,0.459,0.012,0.881,0.012,1.264
					c0,0.383,0.007,0.805,0.022,1.264c0.016,0.459,0.054,1.126,0.115,2h-0.529c-0.076-0.536-0.218-1.034-0.425-1.494
					c-0.207-0.46-0.502-0.831-0.885-1.115c-0.384-0.284-0.882-0.425-1.494-0.425v-0.46c0.612,0,1.104-0.168,1.471-0.505
					c0.368-0.337,0.651-0.739,0.851-1.207c0.199-0.467,0.337-0.908,0.414-1.321H176.504z"/>
			</g>
		</g>
		<g style="clip-path:url(#SVGID_00000020362773562548284570000006384611628196476304_);">
			<polygon style="fill:#C7A36A;" points="445.293,106.676 342.469,106.676 338.704,106.676 338.704,185.391 342.469,185.391 
				445.293,185.391 449.058,185.391 449.058,106.676 			"/>
			<g>
				<g>
					<rect x="338.772" y="101.759" style="fill:#632C1C;" width="110.286" height="78.716"/>
					<rect x="334.876" y="101.759" style="fill:#924129;" width="110.286" height="78.716"/>
					<rect x="346.857" y="110.31" style="fill:#F0DAAC;" width="86.325" height="61.614"/>
				</g>
				<g>
					<g>
						<path style="fill:#D4B26E;" d="M426.255,144.307H357.68c-0.269,0-0.488-0.219-0.488-0.488l0,0c0-0.27,0.219-0.488,0.488-0.488
							h68.575c0.27,0,0.488,0.218,0.488,0.488l0,0C426.743,144.088,426.524,144.307,426.255,144.307z"/>
						<path style="fill:#D4B26E;" d="M426.255,122.774H357.68c-0.269,0-0.488-0.218-0.488-0.488l0,0
							c0-0.269,0.219-0.488,0.488-0.488h68.575c0.27,0,0.488,0.219,0.488,0.488l0,0
							C426.743,122.555,426.524,122.774,426.255,122.774z"/>
						<path style="fill:#D4B26E;" d="M426.255,119.779H357.68c-0.269,0-0.488-0.218-0.488-0.488l0,0c0-0.27,0.219-0.488,0.488-0.488
							h68.575c0.27,0,0.488,0.218,0.488,0.488l0,0C426.743,119.561,426.524,119.779,426.255,119.779z"/>
						<path style="fill:#D4B26E;" d="M426.255,147.009H357.68c-0.269,0-0.488-0.219-0.488-0.488l0,0c0-0.27,0.219-0.488,0.488-0.488
							h68.575c0.27,0,0.488,0.218,0.488,0.488l0,0C426.743,146.791,426.524,147.009,426.255,147.009z"/>
						<path style="fill:#D4B26E;" d="M426.255,149.712H357.68c-0.269,0-0.488-0.218-0.488-0.488l0,0
							c0-0.269,0.219-0.488,0.488-0.488h68.575c0.27,0,0.488,0.219,0.488,0.488l0,0
							C426.743,149.493,426.524,149.712,426.255,149.712z"/>
					</g>
					<g>
						<path style="fill:#D4B26E;" d="M378.166,159.497H357.68c-0.269,0-0.488-0.218-0.488-0.488l0,0c0-0.27,0.219-0.488,0.488-0.488
							h20.486c0.27,0,0.488,0.218,0.488,0.488l0,0C378.654,159.279,378.435,159.497,378.166,159.497z"/>
						<path style="fill:#D4B26E;" d="M378.166,162.199H357.68c-0.269,0-0.488-0.218-0.488-0.488l0,0
							c0-0.269,0.219-0.488,0.488-0.488h20.486c0.27,0,0.488,0.218,0.488,0.488l0,0
							C378.654,161.981,378.435,162.199,378.166,162.199z"/>
						<path style="fill:#D4B26E;" d="M378.166,164.902H357.68c-0.269,0-0.488-0.218-0.488-0.488l0,0
							c0-0.269,0.219-0.488,0.488-0.488h20.486c0.27,0,0.488,0.219,0.488,0.488l0,0
							C378.654,164.684,378.435,164.902,378.166,164.902z"/>
					</g>
					<g>
						<path style="fill:#D4B26E;" d="M426.255,159.497h-20.486c-0.269,0-0.488-0.218-0.488-0.488l0,0
							c0-0.27,0.218-0.488,0.488-0.488h20.486c0.27,0,0.488,0.218,0.488,0.488l0,0C426.743,159.279,426.524,159.497,426.255,159.497
							z"/>
						<path style="fill:#D4B26E;" d="M426.255,162.199h-20.486c-0.269,0-0.488-0.218-0.488-0.488l0,0
							c0-0.269,0.218-0.488,0.488-0.488h20.486c0.27,0,0.488,0.218,0.488,0.488l0,0
							C426.743,161.981,426.524,162.199,426.255,162.199z"/>
						<path style="fill:#D4B26E;" d="M426.255,164.902h-20.486c-0.269,0-0.488-0.218-0.488-0.488l0,0
							c0-0.269,0.218-0.488,0.488-0.488h20.486c0.27,0,0.488,0.219,0.488,0.488l0,0
							C426.743,164.684,426.524,164.902,426.255,164.902z"/>
					</g>
					<path style="fill:#D4B26E;" d="M398.312,161.712c0,3.504-2.84,6.344-6.344,6.344s-6.344-2.84-6.344-6.344
						c0-3.504,2.84-6.344,6.344-6.344S398.312,158.208,398.312,161.712z"/>
					<g>
						<path style="fill:#D4B26E;" d="M361.649,128.535l2.828,7.285c0.108,0.279,0.231,0.471,0.367,0.576
							c0.136,0.105,0.258,0.161,0.366,0.169v0.233c-0.232-0.016-0.506-0.025-0.82-0.029c-0.315-0.003-0.631-0.006-0.948-0.006
							c-0.357,0-0.694,0.003-1.013,0.006c-0.318,0.004-0.57,0.014-0.757,0.029v-0.233c0.396-0.015,0.647-0.083,0.751-0.204
							c0.105-0.12,0.079-0.378-0.076-0.774l-1.978-5.412l0.209-0.302l-1.769,4.608c-0.218,0.574-0.324,1.009-0.32,1.303
							c0.004,0.295,0.099,0.495,0.285,0.6c0.187,0.105,0.435,0.165,0.745,0.18v0.233c-0.257-0.016-0.501-0.025-0.733-0.029
							c-0.233-0.003-0.47-0.006-0.71-0.006c-0.171,0-0.332,0.003-0.483,0.006c-0.151,0.004-0.285,0.014-0.401,0.029v-0.233
							c0.163-0.031,0.33-0.135,0.501-0.314c0.17-0.179,0.337-0.481,0.5-0.908l2.653-6.808c0.124,0.008,0.258,0.012,0.401,0.012
							C361.391,128.546,361.525,128.542,361.649,128.535z M362.464,133.446v0.232h-3.469l0.117-0.232H362.464z"/>
						<path style="fill:#D4B26E;" d="M369.354,128.557c1.528,0,2.665,0.348,3.409,1.042c0.745,0.694,1.117,1.689,1.117,2.985
							c0,0.846-0.182,1.585-0.547,2.217c-0.364,0.633-0.895,1.123-1.589,1.472c-0.694,0.349-1.526,0.524-2.496,0.524
							c-0.186,0-0.452-0.006-0.797-0.018c-0.346-0.012-0.646-0.018-0.902-0.018c-0.341,0-0.677,0.003-1.006,0.006
							c-0.33,0.004-0.592,0.014-0.786,0.029v-0.233c0.248-0.015,0.435-0.046,0.559-0.093c0.124-0.047,0.208-0.14,0.25-0.279
							c0.043-0.14,0.064-0.349,0.064-0.628v-5.772c0-0.287-0.021-0.499-0.064-0.634c-0.042-0.136-0.128-0.229-0.256-0.279
							c-0.128-0.05-0.313-0.08-0.553-0.087v-0.233c0.194,0.008,0.456,0.018,0.786,0.029c0.329,0.012,0.657,0.014,0.983,0.006
							c0.279-0.008,0.595-0.016,0.948-0.023C368.828,128.562,369.121,128.557,369.354,128.557z M369.342,128.767
							c-0.357,0-0.59,0.066-0.698,0.198c-0.109,0.132-0.163,0.399-0.163,0.803v5.819c0,0.404,0.056,0.671,0.169,0.803
							c0.112,0.132,0.347,0.198,0.704,0.198c0.651,0,1.165-0.153,1.542-0.46c0.376-0.307,0.646-0.755,0.809-1.344
							c0.163-0.59,0.244-1.308,0.244-2.153c0-1.303-0.202-2.273-0.605-2.909C370.94,129.085,370.273,128.767,369.342,128.767z"/>
						<path style="fill:#D4B26E;" d="M382.481,128.557v0.233c-0.171,0.063-0.352,0.198-0.541,0.407
							c-0.19,0.21-0.367,0.536-0.53,0.977l-2.455,6.646c-0.063-0.008-0.128-0.012-0.198-0.012c-0.069,0-0.14,0-0.209,0
							c-0.063,0-0.128,0-0.198,0c-0.069,0-0.136,0.004-0.197,0.012l-2.968-7.285c-0.109-0.279-0.23-0.472-0.361-0.576
							c-0.132-0.105-0.256-0.161-0.372-0.169v-0.233c0.232,0.008,0.506,0.016,0.82,0.023c0.315,0.008,0.631,0.012,0.948,0.012
							c0.357,0,0.692-0.004,1.007-0.012c0.314-0.007,0.568-0.016,0.763-0.023v0.233c-0.381,0.016-0.629,0.079-0.745,0.192
							c-0.116,0.113-0.093,0.375,0.07,0.786l2.117,5.388l-0.244,0.291l1.606-4.329c0.209-0.582,0.317-1.04,0.325-1.373
							c0.008-0.333-0.073-0.574-0.244-0.722c-0.171-0.148-0.415-0.225-0.733-0.233v-0.233c0.264,0.008,0.513,0.016,0.745,0.023
							c0.232,0.008,0.47,0.012,0.71,0.012c0.171,0,0.332-0.004,0.483-0.012C382.231,128.574,382.365,128.565,382.481,128.557z"/>
						<path style="fill:#D4B26E;" d="M387.16,128.395c0.822,0,1.542,0.167,2.159,0.5c0.616,0.334,1.096,0.813,1.436,1.437
							c0.342,0.625,0.513,1.383,0.513,2.275c0,0.869-0.175,1.629-0.523,2.281c-0.35,0.652-0.835,1.16-1.455,1.524
							c-0.621,0.365-1.335,0.547-2.142,0.547c-0.822,0-1.542-0.167-2.158-0.501c-0.617-0.333-1.097-0.815-1.438-1.443
							c-0.342-0.628-0.513-1.385-0.513-2.269c0-0.869,0.177-1.629,0.53-2.281c0.352-0.651,0.838-1.16,1.454-1.524
							C385.641,128.577,386.353,128.395,387.16,128.395z M387.113,128.604c-0.435,0-0.813,0.174-1.135,0.524
							c-0.321,0.349-0.569,0.83-0.744,1.443c-0.175,0.613-0.262,1.323-0.262,2.129c0,0.823,0.099,1.539,0.297,2.148
							c0.197,0.609,0.465,1.079,0.803,1.408c0.337,0.33,0.712,0.495,1.123,0.495c0.434,0,0.812-0.175,1.135-0.524
							c0.321-0.349,0.57-0.832,0.744-1.449c0.175-0.617,0.263-1.325,0.263-2.124c0-0.83-0.1-1.548-0.297-2.153
							c-0.198-0.605-0.466-1.073-0.804-1.402C387.899,128.769,387.524,128.604,387.113,128.604z"/>
						<path style="fill:#D4B26E;" d="M396.946,128.395c0.528,0,0.959,0.074,1.292,0.221c0.334,0.148,0.633,0.326,0.897,0.535
							c0.093,0.07,0.17,0.105,0.232,0.105c0.147,0,0.244-0.233,0.291-0.699h0.267c-0.016,0.303-0.027,0.669-0.035,1.1
							c-0.008,0.431-0.012,1.003-0.012,1.716h-0.268c-0.054-0.465-0.138-0.871-0.25-1.216s-0.32-0.642-0.622-0.891
							c-0.186-0.178-0.418-0.318-0.692-0.419c-0.276-0.101-0.554-0.151-0.833-0.151c-0.427,0-0.791,0.111-1.094,0.332
							c-0.303,0.221-0.551,0.522-0.744,0.902c-0.194,0.38-0.338,0.809-0.431,1.286c-0.094,0.477-0.14,0.972-0.14,1.483
							c0,1.396,0.191,2.417,0.576,3.061c0.384,0.644,0.936,0.966,1.658,0.966c0.185,0,0.349-0.023,0.488-0.07
							c0.14-0.046,0.252-0.1,0.338-0.163c0.108-0.077,0.182-0.161,0.221-0.25c0.039-0.089,0.059-0.208,0.059-0.355v-1.141
							c0-0.356-0.029-0.622-0.088-0.797c-0.058-0.175-0.172-0.293-0.343-0.355s-0.419-0.097-0.745-0.105v-0.233
							c0.163,0.008,0.359,0.014,0.588,0.018c0.229,0.004,0.468,0.008,0.716,0.012c0.248,0.004,0.477,0.006,0.686,0.006
							c0.326,0,0.624-0.004,0.896-0.012c0.272-0.008,0.492-0.016,0.663-0.023v0.233c-0.218,0.016-0.359,0.078-0.425,0.186
							c-0.066,0.109-0.099,0.38-0.099,0.815v2.304h-0.233c-0.008-0.132-0.036-0.275-0.087-0.431
							c-0.051-0.155-0.134-0.233-0.25-0.233c-0.055,0-0.126,0.014-0.216,0.041c-0.089,0.027-0.227,0.095-0.413,0.204
							c-0.287,0.163-0.59,0.301-0.907,0.413c-0.318,0.112-0.652,0.169-1.001,0.169c-1.358,0-2.39-0.369-3.096-1.106
							c-0.706-0.737-1.06-1.765-1.06-3.084c0-0.884,0.181-1.652,0.542-2.304c0.36-0.651,0.857-1.16,1.489-1.524
							C395.396,128.577,396.124,128.395,396.946,128.395z"/>
						<path style="fill:#D4B26E;" d="M405.454,128.535l2.828,7.285c0.108,0.279,0.231,0.471,0.367,0.576
							c0.136,0.105,0.258,0.161,0.366,0.169v0.233c-0.232-0.016-0.506-0.025-0.82-0.029c-0.315-0.003-0.631-0.006-0.948-0.006
							c-0.357,0-0.694,0.003-1.013,0.006c-0.318,0.004-0.57,0.014-0.757,0.029v-0.233c0.395-0.015,0.646-0.083,0.751-0.204
							c0.105-0.12,0.079-0.378-0.076-0.774l-1.978-5.412l0.209-0.302l-1.768,4.608c-0.218,0.574-0.324,1.009-0.32,1.303
							c0.004,0.295,0.099,0.495,0.285,0.6c0.187,0.105,0.435,0.165,0.745,0.18v0.233c-0.257-0.016-0.501-0.025-0.733-0.029
							c-0.232-0.003-0.47-0.006-0.71-0.006c-0.171,0-0.332,0.003-0.483,0.006c-0.151,0.004-0.285,0.014-0.401,0.029v-0.233
							c0.163-0.031,0.33-0.135,0.501-0.314c0.17-0.179,0.337-0.481,0.5-0.908l2.653-6.808c0.124,0.008,0.258,0.012,0.401,0.012
							C405.196,128.546,405.33,128.542,405.454,128.535z M406.269,133.446v0.232H402.8l0.117-0.232H406.269z"/>
						<path style="fill:#D4B26E;" d="M413.159,128.557c1.528,0,2.665,0.348,3.409,1.042c0.745,0.694,1.117,1.689,1.117,2.985
							c0,0.846-0.182,1.585-0.547,2.217c-0.364,0.633-0.895,1.123-1.589,1.472c-0.694,0.349-1.526,0.524-2.496,0.524
							c-0.186,0-0.452-0.006-0.797-0.018c-0.346-0.012-0.646-0.018-0.902-0.018c-0.341,0-0.677,0.003-1.006,0.006
							c-0.33,0.004-0.592,0.014-0.786,0.029v-0.233c0.248-0.015,0.435-0.046,0.559-0.093c0.124-0.047,0.208-0.14,0.25-0.279
							c0.043-0.14,0.064-0.349,0.064-0.628v-5.772c0-0.287-0.021-0.499-0.064-0.634c-0.042-0.136-0.128-0.229-0.256-0.279
							c-0.128-0.05-0.313-0.08-0.553-0.087v-0.233c0.194,0.008,0.456,0.018,0.786,0.029c0.329,0.012,0.657,0.014,0.983,0.006
							c0.279-0.008,0.595-0.016,0.948-0.023C412.632,128.562,412.925,128.557,413.159,128.557z M413.147,128.767
							c-0.357,0-0.59,0.066-0.698,0.198c-0.109,0.132-0.163,0.399-0.163,0.803v5.819c0,0.404,0.056,0.671,0.169,0.803
							c0.112,0.132,0.347,0.198,0.704,0.198c0.651,0,1.165-0.153,1.542-0.46c0.376-0.307,0.646-0.755,0.809-1.344
							c0.163-0.59,0.244-1.308,0.244-2.153c0-1.303-0.202-2.273-0.605-2.909C414.745,129.085,414.078,128.767,413.147,128.767z"/>
						<path style="fill:#D4B26E;" d="M423.283,128.395c0.822,0,1.542,0.167,2.159,0.5c0.616,0.334,1.096,0.813,1.437,1.437
							c0.342,0.625,0.513,1.383,0.513,2.275c0,0.869-0.175,1.629-0.523,2.281c-0.35,0.652-0.835,1.16-1.455,1.524
							c-0.621,0.365-1.335,0.547-2.142,0.547c-0.822,0-1.542-0.167-2.158-0.501c-0.617-0.333-1.097-0.815-1.438-1.443
							c-0.342-0.628-0.513-1.385-0.513-2.269c0-0.869,0.177-1.629,0.53-2.281c0.353-0.651,0.838-1.16,1.454-1.524
							C421.764,128.577,422.476,128.395,423.283,128.395z M423.236,128.604c-0.435,0-0.813,0.174-1.135,0.524
							c-0.321,0.349-0.569,0.83-0.744,1.443c-0.175,0.613-0.262,1.323-0.262,2.129c0,0.823,0.099,1.539,0.297,2.148
							c0.197,0.609,0.465,1.079,0.803,1.408c0.337,0.33,0.712,0.495,1.123,0.495c0.435,0,0.813-0.175,1.135-0.524
							c0.321-0.349,0.57-0.832,0.744-1.449c0.175-0.617,0.263-1.325,0.263-2.124c0-0.83-0.1-1.548-0.297-2.153
							c-0.198-0.605-0.466-1.073-0.804-1.402C424.022,128.769,423.647,128.604,423.236,128.604z"/>
					</g>
				</g>
			</g>
		</g>
		<g style="clip-path:url(#SVGID_00000020362773562548284570000006384611628196476304_);">
			<polygon style="fill:#C7A36A;" points="445.293,205.982 342.469,205.982 338.704,205.982 338.704,284.698 342.469,284.698 
				445.293,284.698 449.058,284.698 449.058,205.982 			"/>
			<g>
				<g>
					<rect x="338.772" y="201.065" style="fill:#632C1C;" width="110.286" height="78.716"/>
					<rect x="334.876" y="201.065" style="fill:#924129;" width="110.286" height="78.716"/>
					<rect x="346.857" y="209.616" style="fill:#F0DAAC;" width="86.325" height="61.614"/>
				</g>
				<g>
					<g>
						<path style="fill:#D4B26E;" d="M426.255,243.614H357.68c-0.269,0-0.488-0.218-0.488-0.488l0,0
							c0-0.269,0.219-0.488,0.488-0.488h68.575c0.27,0,0.488,0.218,0.488,0.488l0,0
							C426.743,243.395,426.524,243.614,426.255,243.614z"/>
						<path style="fill:#D4B26E;" d="M426.255,222.081H357.68c-0.269,0-0.488-0.218-0.488-0.488l0,0c0-0.27,0.219-0.488,0.488-0.488
							h68.575c0.27,0,0.488,0.218,0.488,0.488l0,0C426.743,221.862,426.524,222.081,426.255,222.081z"/>
						<path style="fill:#D4B26E;" d="M426.255,219.086H357.68c-0.269,0-0.488-0.218-0.488-0.488l0,0
							c0-0.269,0.219-0.488,0.488-0.488h68.575c0.27,0,0.488,0.218,0.488,0.488l0,0
							C426.743,218.867,426.524,219.086,426.255,219.086z"/>
						<path style="fill:#D4B26E;" d="M426.255,246.316H357.68c-0.269,0-0.488-0.218-0.488-0.488l0,0c0-0.27,0.219-0.488,0.488-0.488
							h68.575c0.27,0,0.488,0.218,0.488,0.488l0,0C426.743,246.098,426.524,246.316,426.255,246.316z"/>
						<path style="fill:#D4B26E;" d="M426.255,249.019H357.68c-0.269,0-0.488-0.219-0.488-0.488l0,0c0-0.27,0.219-0.488,0.488-0.488
							h68.575c0.27,0,0.488,0.218,0.488,0.488l0,0C426.743,248.8,426.524,249.019,426.255,249.019z"/>
					</g>
					<g>
						<path style="fill:#D4B26E;" d="M378.166,258.804H357.68c-0.269,0-0.488-0.218-0.488-0.488l0,0c0-0.27,0.219-0.488,0.488-0.488
							h20.486c0.27,0,0.488,0.218,0.488,0.488l0,0C378.654,258.585,378.435,258.804,378.166,258.804z"/>
						<path style="fill:#D4B26E;" d="M378.166,261.506H357.68c-0.269,0-0.488-0.219-0.488-0.488l0,0c0-0.27,0.219-0.488,0.488-0.488
							h20.486c0.27,0,0.488,0.218,0.488,0.488l0,0C378.654,261.288,378.435,261.506,378.166,261.506z"/>
						<path style="fill:#D4B26E;" d="M378.166,264.209H357.68c-0.269,0-0.488-0.219-0.488-0.488l0,0c0-0.27,0.219-0.488,0.488-0.488
							h20.486c0.27,0,0.488,0.218,0.488,0.488l0,0C378.654,263.99,378.435,264.209,378.166,264.209z"/>
					</g>
					<g>
						<path style="fill:#D4B26E;" d="M426.255,258.804h-20.486c-0.269,0-0.488-0.218-0.488-0.488l0,0
							c0-0.27,0.218-0.488,0.488-0.488h20.486c0.27,0,0.488,0.218,0.488,0.488l0,0C426.743,258.585,426.524,258.804,426.255,258.804
							z"/>
						<path style="fill:#D4B26E;" d="M426.255,261.506h-20.486c-0.269,0-0.488-0.219-0.488-0.488l0,0
							c0-0.27,0.218-0.488,0.488-0.488h20.486c0.27,0,0.488,0.218,0.488,0.488l0,0C426.743,261.288,426.524,261.506,426.255,261.506
							z"/>
						<path style="fill:#D4B26E;" d="M426.255,264.209h-20.486c-0.269,0-0.488-0.219-0.488-0.488l0,0
							c0-0.27,0.218-0.488,0.488-0.488h20.486c0.27,0,0.488,0.218,0.488,0.488l0,0C426.743,263.99,426.524,264.209,426.255,264.209z
							"/>
					</g>
					<polygon style="fill:#D4B26E;" points="399.312,261.018 397.052,262.671 397.909,265.336 395.108,265.343 394.237,268.005 
						391.967,266.363 389.697,268.005 388.826,265.343 386.025,265.336 386.883,262.671 384.623,261.018 386.883,259.366 
						386.026,256.7 388.826,256.694 389.697,254.032 391.967,255.674 394.238,254.032 395.108,256.694 397.909,256.701 
						397.052,259.366 					"/>
					<g>
						<path style="fill:#D4B26E;" d="M376.884,224.803v0.423c-0.479,0.014-0.842,0.067-1.089,0.158
							c-0.247,0.092-0.412,0.261-0.497,0.507c-0.084,0.247-0.127,0.631-0.127,1.152v10.739c0,0.437,0.031,0.761,0.095,0.972
							c0.063,0.212,0.19,0.353,0.38,0.423c0.19,0.07,0.476,0.105,0.857,0.105h1.036c0.648,0,1.237-0.197,1.765-0.592
							c0.529-0.394,0.973-0.948,1.332-1.659c0.359-0.711,0.61-1.533,0.751-2.463h0.486c-0.042,0.479-0.064,1.099-0.064,1.86
							c0,0.325,0.007,0.797,0.022,1.417c0.013,0.621,0.056,1.261,0.127,1.924c-0.719-0.028-1.53-0.046-2.431-0.053
							c-0.902-0.007-1.705-0.01-2.41-0.01c-0.479,0-1.114,0-1.902,0c-0.789,0-1.628,0.004-2.516,0.01
							c-0.888,0.007-1.712,0.025-2.474,0.053v-0.423c0.451-0.028,0.789-0.085,1.015-0.169c0.225-0.085,0.377-0.254,0.454-0.508
							s0.116-0.634,0.116-1.142v-10.485c0-0.521-0.039-0.905-0.116-1.152c-0.077-0.246-0.233-0.415-0.465-0.507
							c-0.233-0.092-0.568-0.145-1.004-0.158v-0.423c0.352,0.014,0.828,0.028,1.427,0.042c0.599,0.014,1.237,0.021,1.913,0.021
							c0.62,0,1.23-0.007,1.829-0.021C375.993,224.831,376.49,224.817,376.884,224.803z"/>
						<path style="fill:#D4B26E;" d="M391.047,224.761l5.138,13.234c0.197,0.507,0.419,0.856,0.666,1.046
							c0.247,0.191,0.469,0.293,0.666,0.307v0.423c-0.423-0.028-0.92-0.046-1.491-0.053c-0.57-0.007-1.145-0.01-1.723-0.01
							c-0.648,0-1.261,0.004-1.84,0.01c-0.578,0.007-1.036,0.025-1.373,0.053v-0.423c0.718-0.028,1.173-0.151,1.363-0.37
							c0.19-0.218,0.144-0.687-0.137-1.406l-3.594-9.83l0.381-0.55l-3.213,8.372c-0.395,1.043-0.589,1.832-0.582,2.368
							c0.007,0.536,0.18,0.898,0.518,1.089c0.339,0.19,0.789,0.3,1.353,0.328v0.423c-0.465-0.028-0.909-0.046-1.332-0.053
							c-0.422-0.007-0.852-0.01-1.289-0.01c-0.311,0-0.603,0.004-0.878,0.01c-0.275,0.007-0.518,0.025-0.729,0.053v-0.423
							c0.296-0.057,0.599-0.247,0.909-0.571c0.31-0.324,0.613-0.874,0.909-1.649l4.82-12.367c0.225,0.014,0.469,0.021,0.729,0.021
							C390.579,224.782,390.822,224.775,391.047,224.761z M392.527,233.682v0.423h-6.3l0.211-0.423H392.527z"/>
						<path style="fill:#D4B26E;" d="M402.273,224.803v0.423c-0.283,0.042-0.48,0.145-0.593,0.306
							c-0.112,0.162-0.158,0.374-0.137,0.634c0.021,0.261,0.081,0.539,0.18,0.835l3.234,9.386l-0.571,0.761l2.706-7.906l0.296,0.571
							l-3.319,9.999c-0.113-0.014-0.233-0.021-0.359-0.021c-0.127,0-0.253,0-0.381,0c-0.127,0-0.253,0-0.38,0
							c-0.128,0-0.247,0.007-0.359,0.021l-4.736-13.234c-0.183-0.521-0.398-0.874-0.644-1.057c-0.247-0.183-0.476-0.282-0.687-0.296
							v-0.423c0.422,0.014,0.922,0.028,1.501,0.042c0.577,0.014,1.127,0.021,1.649,0.021c0.563,0,1.067-0.007,1.511-0.021
							C401.629,224.831,401.991,224.817,402.273,224.803z M417.367,224.803v0.423c-0.311,0.113-0.634,0.356-0.973,0.729
							c-0.339,0.374-0.634,0.969-0.888,1.786l-3.72,12.071c-0.113-0.014-0.233-0.021-0.359-0.021c-0.127,0-0.254,0-0.381,0
							s-0.253,0-0.38,0c-0.128,0-0.247,0.007-0.36,0.021l-4.439-13.445c-0.141-0.437-0.314-0.733-0.518-0.888
							c-0.205-0.155-0.419-0.24-0.645-0.254v-0.423c0.394,0.014,0.863,0.028,1.406,0.042c0.543,0.014,1.081,0.021,1.618,0.021
							c0.62,0,1.202-0.007,1.744-0.021c0.543-0.014,0.975-0.028,1.3-0.042v0.423c-0.423,0.014-0.757,0.063-1.004,0.148
							c-0.246,0.084-0.388,0.247-0.422,0.486c-0.036,0.24,0.031,0.62,0.2,1.142l3.002,9.175l-0.486,0.867l2.389-7.59
							c0.338-1.071,0.499-1.91,0.486-2.515c-0.014-0.606-0.176-1.039-0.486-1.3c-0.311-0.261-0.754-0.398-1.332-0.412v-0.423
							c0.479,0.014,0.93,0.028,1.353,0.042c0.423,0.014,0.846,0.021,1.268,0.021c0.324,0,0.624-0.007,0.899-0.021
							C416.913,224.831,417.155,224.817,417.367,224.803z"/>
					</g>
				</g>
			</g>
		</g>
		<g style="clip-path:url(#SVGID_00000020362773562548284570000006384611628196476304_);">
			<g>
				<g>
					<g>
						<path style="fill:#006064;" d="M50.469,241.101c-28.257,21.011-46.174,53.323-57.644,86.615
							c-18.514,53.739-22.136,112.524-10.359,168.129c0,0-27.189-152.989,58.75-223.55c84.203-69.135,107.685-44.236,108.599-43.201
							C131.544,205.915,78.711,220.102,50.469,241.101z"/>
						<path style="fill:#10204D;" d="M149.847,229.131c0,0-0.013-0.015-0.032-0.036c-0.915-1.035-24.396-25.934-108.599,43.201
							c-85.94,70.561-58.75,223.55-58.75,223.55c-0.262-44.928,12.355-85.335,30.753-120.322l-9.046-8.861l12.149,3.097
							c7.176-12.975,15.113-25.177,23.447-36.541l-7.63-7.138l9.921,4.036c6.961-9.289,14.163-18.006,21.394-26.119l-9.831-18.188
							l14.995,12.496c13.552-14.664,27.017-27.196,38.974-37.395l-4.525-13.576l10.326,8.712
							C134.636,238.511,149.847,229.131,149.847,229.131z"/>
					</g>
					<polyline style="fill:#10204D;" points="46.643,271.473 47.76,250 51.698,267.17 					"/>
					<polyline style="fill:#10204D;" points="79.953,249.827 81.07,228.354 89.222,241.86 					"/>
					<polyline style="fill:#10204D;" points="15.41,303.208 12.59,289.509 20.465,298.905 					"/>
				</g>
				<g>
					<g>
						<path style="fill:#006064;" d="M78.572,337.444c-29.025,8.475-50.486,26.927-66.256,47.423
							c-25.455,33.083-38.21,72.802-36.479,113.599c0,0-0.031-111.138,89.315-141.5c87.54-29.748,104.837-7.617,105.5-6.71
							C157.806,330.413,107.581,328.973,78.572,337.444z"/>
						<path style="fill:#10204D;" d="M170.675,350.287c0,0-0.009-0.013-0.023-0.032c-0.663-0.907-17.96-23.038-105.5,6.71
							c-89.346,30.362-89.315,141.5-89.315,141.5c6.998-30.999,24.955-56.152,47.284-76.345l-6.781-8.023l10.525,4.711
							c8.601-7.414,17.769-14.134,27.161-20.192l-5.774-6.535l8.353,4.885c7.812-4.92,15.752-9.396,23.619-13.45l-5.992-14.613
							l11.593,11.788c14.659-7.224,28.896-12.998,41.387-17.485l-1.92-10.311l7.966,8.191
							C155.362,353.519,170.675,350.287,170.675,350.287z"/>
					</g>
					<polyline style="fill:#10204D;" points="70.209,357.549 74.681,342.998 75.489,355.659 					"/>
					<polyline style="fill:#10204D;" points="103.92,349.71 108.393,335.158 113.614,346.189 					"/>
					<polyline style="fill:#10204D;" points="36.757,372.779 36.404,362.746 42.037,370.889 					"/>
				</g>
				<g>
					<g>
						<path style="fill:#006064;" d="M95.561,402.179c-27.98-1.01-50.884,8.096-68.975,20.396
							c-29.201,19.855-48.039,48.517-53.878,81.975c0,0,20.173-89.877,107.079-90.222c85.15-0.338,96.884,22.245,97.323,23.158
							C169.015,417.961,123.526,403.189,95.561,402.179z"/>
						<path style="fill:#10204D;" d="M177.126,437.518c0,0-0.006-0.013-0.015-0.032c-0.439-0.913-12.173-23.495-97.323-23.158
							c-86.907,0.345-107.079,90.222-107.079,90.222c12.01-23.17,32.939-38.645,56.949-48.923l-4.719-8.324l8.732,6.661
							c9.183-3.664,18.755-6.615,28.412-8.969l-4.072-6.849l6.721,6.213c8.011-1.862,16.056-3.33,23.96-4.476l-2.802-13.44
							l8.418,12.673c14.666-1.87,28.684-2.682,40.879-2.926l0.125-8.858l5.768,8.782
							C162.589,435.983,177.126,437.518,177.126,437.518z"/>
					</g>
					<polyline style="fill:#10204D;" points="84.288,416.171 91.007,405.616 89.441,416.073 					"/>
					<polyline style="fill:#10204D;" points="116.422,418.965 123.141,408.41 125.892,418.745 					"/>
					<polyline style="fill:#10204D;" points="51.048,419.423 52.55,411.215 56.201,419.325 					"/>
				</g>
			</g>
			<path style="fill:none;stroke:#10204D;stroke-miterlimit:10;" d="M64.425,240.537c0,5.944,0,11.888,0,17.832"/>
			<path style="fill:none;stroke:#10204D;stroke-miterlimit:10;" d="M101.115,225.964c1.347,4.536,2.541,9.117,3.578,13.734"/>
			<path style="fill:none;stroke:#10204D;stroke-miterlimit:10;" d="M30.617,265.897c1.958,6.661,3.639,13.403,5.038,20.203"/>
			<path style="fill:none;stroke:#10204D;stroke-miterlimit:10;" d="M60.645,347.051c-0.785,0.916-0.821,2.237-0.817,3.443
				c0.018,5.508,0.035,11.015,0.053,16.523"/>
			<path style="fill:none;stroke:#10204D;stroke-miterlimit:10;" d="M93.494,337.582c-1.086,7.171-2.044,14.361-2.873,21.566"/>
			<path style="fill:none;stroke:#10204D;stroke-miterlimit:10;" d="M118.502,336.662c1.229,2.44,1.732,5.241,1.428,7.956"/>
			<path style="fill:none;stroke:#10204D;stroke-miterlimit:10;" d="M102.772,408.542c-0.985,3.589-1.969,7.179-2.954,10.768"/>
			<path style="fill:none;stroke:#10204D;stroke-miterlimit:10;" d="M70.302,408.416c-1.072,5.122-2.144,10.243-3.217,15.365"/>
			<path style="fill:none;stroke:#10204D;stroke-miterlimit:10;" d="M134.172,413.481c-0.468,2.2-0.936,4.401-1.404,6.601"/>
			<path style="fill:none;stroke:#10204D;stroke-miterlimit:10;" d="M22.028,280.353c0.237,4.413,1.274,8.782,3.045,12.831"/>
		</g>
		<g style="clip-path:url(#SVGID_00000020362773562548284570000006384611628196476304_);">
			<polygon style="fill:#C7A36A;" points="580.456,106.676 477.632,106.676 473.867,106.676 473.867,185.391 477.632,185.391 
				580.456,185.391 584.221,185.391 584.221,106.676 			"/>
			<g>
				<g>
					<rect x="473.935" y="101.759" style="fill:#632C1C;" width="110.286" height="78.716"/>
					<rect x="470.039" y="101.759" style="fill:#924129;" width="110.286" height="78.716"/>
					<rect x="482.019" y="110.31" style="fill:#F0DAAC;" width="86.325" height="61.614"/>
				</g>
				<g>
					<g>
						<path style="fill:#D4B26E;" d="M561.418,144.307h-68.575c-0.27,0-0.488-0.219-0.488-0.488l0,0c0-0.27,0.218-0.488,0.488-0.488
							h68.575c0.269,0,0.488,0.218,0.488,0.488l0,0C561.905,144.088,561.687,144.307,561.418,144.307z"/>
						<path style="fill:#D4B26E;" d="M561.418,122.774h-68.575c-0.27,0-0.488-0.218-0.488-0.488l0,0
							c0-0.269,0.218-0.488,0.488-0.488h68.575c0.269,0,0.488,0.219,0.488,0.488l0,0
							C561.905,122.555,561.687,122.774,561.418,122.774z"/>
						<path style="fill:#D4B26E;" d="M561.418,119.779h-68.575c-0.27,0-0.488-0.218-0.488-0.488l0,0c0-0.27,0.218-0.488,0.488-0.488
							h68.575c0.269,0,0.488,0.218,0.488,0.488l0,0C561.905,119.561,561.687,119.779,561.418,119.779z"/>
						<path style="fill:#D4B26E;" d="M561.418,147.009h-68.575c-0.27,0-0.488-0.219-0.488-0.488l0,0c0-0.27,0.218-0.488,0.488-0.488
							h68.575c0.269,0,0.488,0.218,0.488,0.488l0,0C561.905,146.791,561.687,147.009,561.418,147.009z"/>
						<path style="fill:#D4B26E;" d="M561.418,149.712h-68.575c-0.27,0-0.488-0.218-0.488-0.488l0,0
							c0-0.269,0.218-0.488,0.488-0.488h68.575c0.269,0,0.488,0.219,0.488,0.488l0,0
							C561.905,149.493,561.687,149.712,561.418,149.712z"/>
					</g>
					<g>
						<path style="fill:#D4B26E;" d="M513.329,159.497h-20.486c-0.27,0-0.488-0.218-0.488-0.488l0,0c0-0.27,0.218-0.488,0.488-0.488
							h20.486c0.269,0,0.488,0.218,0.488,0.488l0,0C513.816,159.279,513.598,159.497,513.329,159.497z"/>
						<path style="fill:#D4B26E;" d="M513.329,162.199h-20.486c-0.27,0-0.488-0.218-0.488-0.488l0,0
							c0-0.269,0.218-0.488,0.488-0.488h20.486c0.269,0,0.488,0.218,0.488,0.488l0,0
							C513.816,161.981,513.598,162.199,513.329,162.199z"/>
						<path style="fill:#D4B26E;" d="M513.329,164.902h-20.486c-0.27,0-0.488-0.218-0.488-0.488l0,0
							c0-0.269,0.218-0.488,0.488-0.488h20.486c0.269,0,0.488,0.219,0.488,0.488l0,0
							C513.816,164.684,513.598,164.902,513.329,164.902z"/>
					</g>
					<g>
						<path style="fill:#D4B26E;" d="M561.418,159.497h-20.486c-0.269,0-0.488-0.218-0.488-0.488l0,0
							c0-0.27,0.218-0.488,0.488-0.488h20.486c0.269,0,0.488,0.218,0.488,0.488l0,0
							C561.905,159.279,561.687,159.497,561.418,159.497z"/>
						<path style="fill:#D4B26E;" d="M561.418,162.199h-20.486c-0.269,0-0.488-0.218-0.488-0.488l0,0
							c0-0.269,0.218-0.488,0.488-0.488h20.486c0.269,0,0.488,0.218,0.488,0.488l0,0
							C561.905,161.981,561.687,162.199,561.418,162.199z"/>
						<path style="fill:#D4B26E;" d="M561.418,164.902h-20.486c-0.269,0-0.488-0.218-0.488-0.488l0,0
							c0-0.269,0.218-0.488,0.488-0.488h20.486c0.269,0,0.488,0.219,0.488,0.488l0,0
							C561.905,164.684,561.687,164.902,561.418,164.902z"/>
					</g>
					<path style="fill:#D4B26E;" d="M533.474,161.712c0,3.504-2.841,6.344-6.344,6.344s-6.344-2.84-6.344-6.344
						c0-3.504,2.841-6.344,6.344-6.344S533.474,158.208,533.474,161.712z"/>
				</g>
			</g>
		</g>
		<g style="clip-path:url(#SVGID_00000020362773562548284570000006384611628196476304_);">
			<polygon style="fill:#C7A36A;" points="580.456,205.982 477.632,205.982 473.867,205.982 473.867,284.698 477.632,284.698 
				580.456,284.698 584.221,284.698 584.221,205.982 			"/>
			<g>
				<g>
					<rect x="473.935" y="201.065" style="fill:#632C1C;" width="110.286" height="78.716"/>
					<rect x="470.039" y="201.065" style="fill:#924129;" width="110.286" height="78.716"/>
					<rect x="482.019" y="209.616" style="fill:#F0DAAC;" width="86.325" height="61.614"/>
				</g>
				<g>
					<g>
						<path style="fill:#D4B26E;" d="M561.418,243.614h-68.575c-0.27,0-0.488-0.218-0.488-0.488l0,0
							c0-0.269,0.218-0.488,0.488-0.488h68.575c0.269,0,0.488,0.218,0.488,0.488l0,0
							C561.905,243.395,561.687,243.614,561.418,243.614z"/>
						<path style="fill:#D4B26E;" d="M561.418,222.081h-68.575c-0.27,0-0.488-0.218-0.488-0.488l0,0c0-0.27,0.218-0.488,0.488-0.488
							h68.575c0.269,0,0.488,0.218,0.488,0.488l0,0C561.905,221.862,561.687,222.081,561.418,222.081z"/>
						<path style="fill:#D4B26E;" d="M561.418,219.086h-68.575c-0.27,0-0.488-0.218-0.488-0.488l0,0
							c0-0.269,0.218-0.488,0.488-0.488h68.575c0.269,0,0.488,0.218,0.488,0.488l0,0
							C561.905,218.867,561.687,219.086,561.418,219.086z"/>
						<path style="fill:#D4B26E;" d="M561.418,246.316h-68.575c-0.27,0-0.488-0.218-0.488-0.488l0,0c0-0.27,0.218-0.488,0.488-0.488
							h68.575c0.269,0,0.488,0.218,0.488,0.488l0,0C561.905,246.098,561.687,246.316,561.418,246.316z"/>
						<path style="fill:#D4B26E;" d="M561.418,249.019h-68.575c-0.27,0-0.488-0.219-0.488-0.488l0,0c0-0.27,0.218-0.488,0.488-0.488
							h68.575c0.269,0,0.488,0.218,0.488,0.488l0,0C561.905,248.8,561.687,249.019,561.418,249.019z"/>
					</g>
					<g>
						<path style="fill:#D4B26E;" d="M513.329,258.804h-20.486c-0.27,0-0.488-0.218-0.488-0.488l0,0c0-0.27,0.218-0.488,0.488-0.488
							h20.486c0.269,0,0.488,0.218,0.488,0.488l0,0C513.816,258.585,513.598,258.804,513.329,258.804z"/>
						<path style="fill:#D4B26E;" d="M513.329,261.506h-20.486c-0.27,0-0.488-0.219-0.488-0.488l0,0c0-0.27,0.218-0.488,0.488-0.488
							h20.486c0.269,0,0.488,0.218,0.488,0.488l0,0C513.816,261.288,513.598,261.506,513.329,261.506z"/>
						<path style="fill:#D4B26E;" d="M513.329,264.209h-20.486c-0.27,0-0.488-0.219-0.488-0.488l0,0c0-0.27,0.218-0.488,0.488-0.488
							h20.486c0.269,0,0.488,0.218,0.488,0.488l0,0C513.816,263.99,513.598,264.209,513.329,264.209z"/>
					</g>
					<g>
						<path style="fill:#D4B26E;" d="M561.418,258.804h-20.486c-0.269,0-0.488-0.218-0.488-0.488l0,0
							c0-0.27,0.218-0.488,0.488-0.488h20.486c0.269,0,0.488,0.218,0.488,0.488l0,0
							C561.905,258.585,561.687,258.804,561.418,258.804z"/>
						<path style="fill:#D4B26E;" d="M561.418,261.506h-20.486c-0.269,0-0.488-0.219-0.488-0.488l0,0
							c0-0.27,0.218-0.488,0.488-0.488h20.486c0.269,0,0.488,0.218,0.488,0.488l0,0
							C561.905,261.288,561.687,261.506,561.418,261.506z"/>
						<path style="fill:#D4B26E;" d="M561.418,264.209h-20.486c-0.269,0-0.488-0.219-0.488-0.488l0,0
							c0-0.27,0.218-0.488,0.488-0.488h20.486c0.269,0,0.488,0.218,0.488,0.488l0,0C561.905,263.99,561.687,264.209,561.418,264.209
							z"/>
					</g>
					<circle style="fill:#D4B26E;" cx="527.13" cy="261.018" r="6.344"/>
				</g>
			</g>
		</g>
		<g style="clip-path:url(#SVGID_00000020362773562548284570000006384611628196476304_);">
			<g>
				<g>
					<rect x="341.862" y="398.963" style="fill:#924129;" width="166.076" height="20.299"/>
					<rect x="350.755" y="419.262" style="fill:#924129;" width="157.182" height="80.738"/>
					<rect x="350.755" y="419.262" style="fill:#632C1C;" width="157.182" height="11.766"/>
				</g>
				<g>
					<g>
						<g>
							<path style="fill:#6C301E;" d="M453.892,399.538c-6.066,0-21.468,0-21.468,0s-15.402,0-21.469,0
								c-6.066,0-4.199-3.27,4.668-6.535c8.867-3.266,12.602-6.534,13.535-13.065c0.934-6.536-6.535-7.004-2.336-15.403
								c4.203-8.401,1.402-17.268,1.402-20.535c0-3.269-1.867-2.335-2.801-6.066c-0.934-3.734-0.469-8.871,0.465-13.535
								c0.934-4.667,1.867-6.535,2.801-14.468c0.934-7.934,1.867-13.535,1.867-13.535s-0.934-0.934,0-3.734
								c0.349-1.046,0.503-1.963,0.534-2.821c0.034-0.954-0.082-1.84-0.25-2.753c-0.086-0.461-0.185-0.934-0.284-1.426
								c-0.4-2.014-0.455-4.719-0.465-5.427c0-0.113,0-0.175,0-0.175h4.667c0,0,0,0.061-0.003,0.171
								c-0.007,0.701-0.062,3.413-0.465,5.431c-0.099,0.492-0.199,0.964-0.28,1.426c-0.168,0.913-0.288,1.799-0.25,2.753
								c0.03,0.858,0.181,1.775,0.53,2.821c0.934,2.801,0,3.734,0,3.734s0.934,5.602,1.867,13.535
								c0.933,7.934,1.867,9.801,2.8,14.468c0.934,4.665,1.399,9.801,0.465,13.535c-0.934,3.73-2.8,2.797-2.8,6.066
								c0,3.267-2.797,12.134,1.401,20.535c4.2,8.4-3.266,8.867-2.332,15.403c0.931,6.531,4.664,9.8,13.532,13.065
								C458.092,396.268,459.959,399.538,453.892,399.538z"/>
							<path style="fill:#6C301E;" d="M434.993,272.358c0,0.513-0.106,0.995-0.297,1.415c-0.432,0.961-1.286,1.618-2.271,1.618
								c-0.985,0-1.84-0.657-2.267-1.618c-0.192-0.42-0.297-0.903-0.297-1.415c0-1.676,1.149-3.033,2.564-3.033
								C433.843,269.325,434.993,270.682,434.993,272.358z"/>
							<g>
								<g>
									<path style="fill:#6C301E;" d="M430.713,279.065c-0.353-0.029-8.985-1.635-14.487-6.335
										c-5.375-4.586-7.527-6.059-13.274-3.801c-2.594,1.016-4.778,1.074-6.492,0.172c-1.138-0.603-1.817-1.51-2.201-2.235
										c-0.664,0.157-1.528,0.303-2.403,0.279c-0.233-0.004-0.466-0.022-0.693-0.054c-0.334-0.042-0.658-0.12-0.968-0.238
										c-0.389-0.148-0.752-0.361-1.059-0.658c-0.954-0.907-1.175-2.28-0.652-4.088l0.038-0.14l0.073-0.127
										c0.842-1.438,2.135-2.159,3.55-1.98c1.512,0.186,2.796,1.378,3.275,3.033l-2.243,0.645
										c-0.21-0.734-0.757-1.292-1.324-1.363c-0.291-0.039-0.54,0.068-0.75,0.238c-0.306,0.249-0.474,0.628-0.529,1.02
										c-0.074,0.517-0.019,0.895,0.164,1.07c0.125,0.117,0.314,0.199,0.547,0.243c0.204,0.043,0.441,0.063,0.695,0.065
										c0.825-0.002,1.851-0.206,2.585-0.455l1.225-0.423l0.293,1.265c0,0.014,0.308,1.225,1.468,1.837
										c1.084,0.577,2.614,0.48,4.55-0.277c7.01-2.756,10.185-0.455,15.639,4.202c4.917,4.192,12.911,4.113,12.994,4.119
										L430.713,279.065z"/>
								</g>
								<g>
									<path style="fill:#6C301E;" d="M475.765,295.155l-0.064,0.13c-0.812,1.7-1.889,2.578-3.204,2.623
										c-0.107,0.003-0.216,0.002-0.319-0.008c-0.243-0.016-0.477-0.064-0.702-0.136c-0.068-0.022-0.14-0.046-0.207-0.071
										c-0.029-0.011-0.058-0.022-0.085-0.036c-0.089-0.034-0.174-0.07-0.257-0.112c-0.131-0.061-0.253-0.133-0.374-0.212
										c-0.057-0.033-0.11-0.067-0.166-0.103c-0.02-0.015-0.044-0.028-0.063-0.046c-0.173-0.113-0.332-0.24-0.49-0.374
										c-0.67-0.566-1.219-1.25-1.61-1.809c-0.769,0.29-1.879,0.515-3.132,0.21c-1.879-0.466-3.472-1.961-4.738-4.444
										c-2.792-5.508-5.379-5.837-12.442-5.985c-5.447-0.108-11.054-2.709-13.611-4.076c-0.842-0.449-1.355-0.765-1.424-0.816
										l2.635-2.993c0.017,0.013,0.412,0.369,1.097,0.896c2.01,1.544,6.53,4.562,11.35,4.662
										c7.171,0.145,11.068,0.538,14.476,7.256c0.942,1.851,2.021,2.938,3.217,3.228c1.27,0.315,2.308-0.384,2.316-0.396
										l1.061-0.749l0.631,1.129c0.384,0.673,1.014,1.509,1.628,2.057c0.192,0.169,0.383,0.311,0.564,0.412
										c0.059,0.037,0.121,0.067,0.175,0.088c0.139,0.068,0.274,0.097,0.395,0.096c0.02-0.004,0.042-0.006,0.063-0.013
										c0.238-0.038,0.505-0.28,0.768-0.682c0.219-0.326,0.344-0.721,0.283-1.11c-0.045-0.266-0.159-0.514-0.401-0.676
										c-0.472-0.326-1.251-0.271-1.895,0.135l-1.248-1.971c1.458-0.92,3.21-0.956,4.465-0.09
										c1.174,0.809,1.664,2.206,1.334,3.841L475.765,295.155z"/>
								</g>
								<path style="fill:#C08329;" d="M436.415,278.488c-0.394,1.035-1.176,1.811-2.114,2.219
									c-0.181,0.081-0.366,0.146-0.553,0.195c-0.782,0.219-1.636,0.193-2.451-0.117c-0.815-0.31-1.47-0.859-1.91-1.538
									c-0.106-0.165-0.201-0.336-0.284-0.514c-0.429-0.932-0.498-2.03-0.104-3.066c0.087-0.23,0.194-0.445,0.316-0.648
									c0.551-0.91,1.435-1.54,2.429-1.787c0.761-0.193,1.583-0.162,2.373,0.138c0.789,0.3,1.428,0.825,1.869,1.475
									c0.577,0.849,0.816,1.902,0.623,2.948C436.565,278.025,436.503,278.258,436.415,278.488z"/>
								<path style="fill:#EBC17D;" d="M435.388,278.097c-0.285,0.749-0.85,1.309-1.528,1.604c-0.131,0.059-0.265,0.105-0.4,0.141
									c-0.566,0.158-1.183,0.14-1.772-0.084c-0.589-0.224-1.062-0.621-1.38-1.112c-0.077-0.119-0.146-0.243-0.205-0.371
									c-0.31-0.674-0.36-1.468-0.075-2.216c0.063-0.166,0.141-0.322,0.228-0.468c0.399-0.658,1.037-1.113,1.756-1.292
									c0.55-0.14,1.145-0.117,1.715,0.1c0.57,0.217,1.032,0.596,1.351,1.066c0.417,0.614,0.59,1.375,0.451,2.131
									C435.496,277.763,435.451,277.931,435.388,278.097z"/>
							</g>
							<g>
								<g>
									<polygon style="fill:#6C301E;" points="497.407,363.867 496.75,364.103 496.213,362.612 472.529,296.989 472.365,296.531 
										472.108,295.816 472.012,295.553 472.153,295.501 472.673,295.313 472.717,295.436 473.233,296.866 496.955,362.612 
																			"/>
								</g>
								<g>
									<polygon style="fill:#6C301E;" points="472.225,295.009 472.153,295.501 472.108,295.816 471.938,296.978 471.698,298.61 
										462.372,362.612 461.955,365.464 461.261,365.361 461.661,362.612 470.398,302.679 471.007,298.493 471.246,296.855 
										471.53,294.906 472.129,294.995 									"/>
								</g>
								<g>
									<path style="fill:#6C301E;" d="M472.973,294.639l-0.256,0.796l-0.353,1.095l-0.109,0.345l-0.038,0.116l-0.52,1.618
										l-1.299,4.069l-19.185,59.934l-0.475,1.48l-0.663-0.216l0.403-1.265l20.528-64.119l0.506-1.58l0.075-0.233l0.541-1.686
										l0.106-0.336c0.154,0.014,0.291-0.006,0.403-0.051c0.017-0.011,0.038-0.021,0.055-0.034
										C472.792,294.609,472.884,294.625,472.973,294.639z"/>
								</g>
								<path style="fill:#6C301E;" d="M499.411,362.612v2.12c0,3.211-2.602,5.814-5.814,5.814h-38.775
									c-3.211,0-5.813-2.603-5.813-5.814v-2.12H499.411z"/>
							</g>
							<g>
								<g>
									
										<rect x="343.259" y="298.611" transform="matrix(0.3392 -0.9407 0.9407 0.3392 -30.3212 554.7579)" style="fill:#6C301E;" width="72.878" height="0.7"/>
								</g>
								<g>
									
										<rect x="397.316" y="263.837" transform="matrix(0.9895 -0.1442 0.1442 0.9895 -39.025 60.4776)" style="fill:#6C301E;" width="0.7" height="71.199"/>
								</g>
								<g>
									<path style="fill:#6C301E;" d="M414.333,333.128l-0.663,0.215l-21.515-67.216l-0.719-2.235
										c0.205-0.033,0.434-0.098,0.672-0.186l0.714,2.226L414.333,333.128z"/>
								</g>
								<path style="fill:#6C301E;" d="M409.881,339.798h-39.363c-3.049,0-5.521-2.473-5.521-5.522v-2.413h50.405v2.413
									C415.401,337.326,412.93,339.798,409.881,339.798z"/>
							</g>
						</g>
					</g>
				</g>
			</g>
		</g>
	</g>
	<g>
		<g>
			<polygon style="fill:#D13A3A;" points="313.201,206.359 364.102,309.677 331.668,325.595 291.152,287.193 			"/>
			<polygon style="fill:#D13A3A;" points="173.07,203.704 139.013,317.637 167.069,328.611 207.711,275.569 			"/>
			<g>
				<path style="fill:#2A1510;" d="M293.181,167.07c-0.315-1.419-0.595-2.846-0.867-4.267c-1.344-7.023-2.693-14.174-1.904-21.281
					c0.748-6.741,3.392-13.141,4.407-19.848c1.73-11.436-1.581-23.542-8.89-32.506c-18.478-22.661-55.523-21.438-75.294-1.468
					c-11.861,11.981-17.401,29.897-14.372,46.481c1.039,5.688,2.972,11.773,0.555,17.025c-0.916,1.99-2.414,3.729-3.768,5.502
					C224.266,167.842,260.151,173.614,293.181,167.07z"/>
				<polygon style="fill:#2A1510;" points="175.402,416.06 202.693,500.005 252.415,500.005 252.415,422.825 256.335,422.825 
					287.947,500.005 335.116,500.005 332.134,410.01 295.647,349.83 222.647,345.08 				"/>
				<g>
					<path style="fill:#D13A3A;" d="M234.951,175.551c-19.481,11.671-40.283,21.135-61.881,28.153
						c10.55,36.47,19.811,74.643,30.361,111.113c-14.608,33.773-24.986,67.604-30.948,103.915
						c17.831,5.721,37.793,5.327,56.518,5.044c3.516-18.093,6.491-35.838,10.007-53.931c12.55,20.697,30.968,40.035,49.91,55.102
						c16.766-1.89,31.95-5.836,48.237-10.241c-10.691-36.406-26.951-72.18-47.178-104.282
						c7.801-35.103,15.423-68.962,23.223-104.065c-16.991-9.832-33.968-18.628-50.959-28.46c-4.087-2.365-8.267-4.766-12.895-5.702
						C244.719,171.261,239.002,173.124,234.951,175.551z"/>
					<polygon style="fill:#F4E6D0;" points="261.645,174.601 271.328,185.509 261.359,279.111 252.817,293.709 238.53,279.422 
						223.622,232.212 224.161,182.54 230.285,172.018 					"/>
					<g>
						<path style="fill:#D13A3A;" d="M254.284,299.521l-4.691,7.786l-4.489-6.585l-45.007-65.924l11.468-6.325l-12.429-10.651
							l26.233-36.98c1.894,38.586,12.843,76.662,24.205,106.721C251.15,291.716,252.727,295.705,254.284,299.521z"/>
						<polyline style="fill:none;stroke:#2A1510;stroke-linecap:round;stroke-linejoin:round;stroke-miterlimit:10;" points="
							249.593,307.307 245.104,300.723 200.097,234.798 211.565,228.473 199.135,217.822 225.369,180.842 						"/>
					</g>
					<g>
						<path style="fill:#D13A3A;" d="M283.833,225.195l11.814,5.672l-41.364,68.654l-4.691,7.786l-24.782,41.133
							c0.615-1.173,10.286-19.697,20.293-47.718c1.49-4.182,2.999-8.575,4.47-13.16c9.68-29.944,18.437-67.818,18.149-106.269
							l27.925,32.568L283.833,225.195z"/>
						<path style="fill:none;stroke:#2A1510;stroke-linecap:round;stroke-linejoin:round;stroke-miterlimit:10;" d="
							M239.008,369.845c-7.423-12.687-9.477-29.238-1.892-41.829l12.477-20.709l4.691-7.786l41.364-68.654l-11.814-5.672
							l11.814-11.333l-27.925-32.568"/>
					</g>
					<path style="fill:none;stroke:#2A1510;stroke-linecap:round;stroke-linejoin:round;stroke-miterlimit:10;" d="M228.166,180.338
						c0.397,14.275,2.615,28.499,6.584,42.217c-0.484-4.328-0.023-8.76,1.344-12.895c5.988,5.515,11.25,11.817,15.607,18.694
						c2.248-6.905,5.564-13.461,9.794-19.364c0.756,3.837,1.511,7.674,2.267,11.511c2.378-13.968,1.892-28.418-1.419-42.195"/>
					<path style="fill:none;stroke:#2A1510;stroke-linecap:round;stroke-linejoin:round;stroke-miterlimit:10;" d="M251.701,228.354
						c1.831,22.804-0.232,36.029-2,58.839"/>
					<path style="fill:none;stroke:#2A1510;stroke-linecap:round;stroke-linejoin:round;stroke-miterlimit:10;" d="M276.818,365.83
						c9.556-5.333,19.111-10.667,28.667-16"/>
					<path style="fill:none;stroke:#2A1510;stroke-linecap:round;stroke-linejoin:round;stroke-miterlimit:10;" d="M188.174,360.288
						c9.297,3.89,19.074,6.629,29.039,8.136"/>
				</g>
				<g>
					<path style="fill:#F2AD93;" d="M230.174,164.298c0.125,8.637,0.25,17.273,0.375,25.91
						c-0.726,0.778,12.282,20.977,20.364,27.806c6.421-7.313,13.415-27.489,11.898-28.044c-0.193-1.308-0.369-2.625-0.535-3.947
						C250.498,190.791,238.952,178.209,230.174,164.298z"/>
					<path style="fill:#F77F54;" d="M229.738,134.192c0.145,10.035,0.29,20.071,0.435,30.106
						c8.779,13.911,20.324,26.493,32.101,21.724c-1.471-11.686-1.942-23.862-2.173-35.773
						C252.679,138.185,240.012,132.708,229.738,134.192z"/>
				</g>
				<g>
					<g>
						<path style="fill:#F77F54;" d="M219.543,129.991c-0.883-1.56-1.81-3.169-3.264-4.218c-1.454-1.049-3.594-1.372-5.002-0.262
							c-0.873,0.689-1.322,1.812-1.407,2.92c-0.085,1.109,0.153,2.216,0.442,3.29c0.518,1.926,1.204,3.806,2.048,5.613
							c0.72,1.543,1.619,3.101,3.078,3.979c1.258,0.757,2.863,0.909,4.241,0.401c1.378-0.508,2.501-1.665,2.967-3.057"/>
						<path style="fill:#F77F54;" d="M273.99,129.991c0.883-1.56,1.81-3.169,3.264-4.218c1.454-1.049,3.594-1.372,5.001-0.262
							c0.873,0.689,1.322,1.812,1.407,2.92c0.086,1.109-0.153,2.216-0.442,3.29c-0.518,1.926-1.204,3.806-2.048,5.613
							c-0.72,1.543-1.619,3.101-3.078,3.979c-1.258,0.757-2.863,0.909-4.241,0.401c-1.378-0.508-2.501-1.665-2.967-3.057"/>
						<g>
							<path style="fill:#F2AD93;" d="M254.05,92.735c-3.538-0.381-7.106-0.458-10.654-0.197
								c-4.178,10.823-14.712,18.737-25.525,24.845c-0.555,3.961-0.421,8.187,0.341,14.887c1.7,10.994,0.487,14.055,8.267,22.289
								c4.027,4.261,14.371,7.01,21.292,7.311c6.384,0.277,17.668-6.592,21.292-10.606c7.372-8.166,5.69-9.721,6.559-17.851
								c0.005-4.35,0.384-10.278,0.622-15.616c-1.547-0.861-3.007-1.802-4.324-2.743C264.131,109.863,257.1,102.42,254.05,92.735z"
								/>
						</g>
						<path style="fill:#2A1510;" d="M241.18,123.909c0,1.507-1.221,2.728-2.728,2.728c-1.507,0-2.728-1.221-2.728-2.728
							s1.221-2.728,2.728-2.728C239.958,121.18,241.18,122.402,241.18,123.909z"/>
						<path style="fill:#2A1510;" d="M258.735,123.909c0,1.507-1.221,2.728-2.728,2.728c-1.507,0-2.728-1.221-2.728-2.728
							s1.221-2.728,2.728-2.728C257.513,121.18,258.735,122.402,258.735,123.909z"/>
						
							<linearGradient id="SVGID_00000063623708143603871140000009546952748401402036_" gradientUnits="userSpaceOnUse" x1="247.42" y1="126.0401" x2="247.2075" y2="136.3085">
							<stop  offset="0.0475" style="stop-color:#F28D67;stop-opacity:0"/>
							<stop  offset="0.6816" style="stop-color:#F28D67"/>
							<stop  offset="1" style="stop-color:#F26F3D"/>
						</linearGradient>
						<path style="fill:url(#SVGID_00000063623708143603871140000009546952748401402036_);" d="M247.211,123.135
							c-2.077,1.496-5.503,10.491-4.257,12.587c1.302,2.191,7.276,1.825,8.636-0.085
							C252.753,134.003,248.811,123.462,247.211,123.135z"/>
					</g>
					<path style="fill:none;stroke:#2A1510;stroke-linecap:round;stroke-linejoin:round;stroke-miterlimit:10;" d="M230.774,115.909
						c0.973-2.071,2.913-3.663,5.134-4.213c2.221-0.55,4.68-0.049,6.508,1.328"/>
					<path style="fill:none;stroke:#2A1510;stroke-linecap:round;stroke-linejoin:round;stroke-miterlimit:10;" d="M251.801,113.113
						c1.526-1.615,3.864-2.421,6.061-2.089c2.197,0.332,4.192,1.794,5.172,3.788"/>
					<path style="fill:#D13A3A;" d="M248.748,148.445c1.686,0.184,3.429-0.191,4.889-1.055c1.46-0.863,2.666-2.447,3.317-4.013
						c-1.293-1.069-2.624-2.16-4.214-2.696c-1.59-0.536-3.518-0.404-4.72,0.766h-0.411c-1.202-1.17-3.131-1.302-4.721-0.766
						c-1.589,0.536-2.921,1.627-4.214,2.696c0.651,1.566,1.857,3.15,3.317,4.013c1.46,0.863,3.203,1.239,4.889,1.055H248.748z"/>
					<path style="fill:none;stroke:#2A1510;stroke-linecap:round;stroke-linejoin:round;stroke-miterlimit:10;" d="M236.853,142.883
						c6.463,3.022,14.306,2.915,20.684-0.281"/>
				</g>
				<path style="fill:none;stroke:#2A1510;stroke-linecap:round;stroke-linejoin:round;stroke-miterlimit:10;" d="M260.634,166.526"
					/>
			</g>
			<g>
				<rect x="175.402" y="226.401" style="fill:#4B4BBD;" width="77.877" height="114.001"/>
				<rect x="202.599" y="221.401" style="fill:#2A1510;" width="23.482" height="11.696"/>
				<path style="fill:#F2AD93;" d="M255.908,270.176c-0.149-1.061-0.888-2.395-1.923-2.67c0.696-0.512,1.411-1.042,1.86-1.78
					c0.45-0.738,0.575-1.743,0.071-2.445c-0.623-0.868-1.867-0.935-2.936-0.918c-5.987,0.095-11.976,0.095-17.963,0.19
					c5.649,0.074,10.876-4.314,12.268-9.789c-10.479,2.459-21.263,6.539-31.742,8.998c-3.208,4.965-7.372,18.607-10.581,23.572
					l-12.357,6.873l15.235,17.472l13.702-14.049c11.54-2.638,21.871-7.99,32.51-13.181c0.855-0.417,1.458-1.311,1.525-2.26
					s-0.32-1.922-1.108-2.455c1.544-1.005,1.411-3.5,0.127-4.82C255.519,272.362,256.057,271.237,255.908,270.176z"/>
				<polygon style="fill:#F4E6D0;" points="176.09,298.552 196.729,324.389 210.571,310.197 192.471,289.44 				"/>
				<path style="fill:#D13A3A;" d="M184.098,289.44l21.697,32.184l-29.117,25.914c-10.325,9.189-26.214,7.98-35.028-2.667l0,0
					c-9.907-11.966-6.262-30.021,7.512-37.206L184.098,289.44z"/>
				<polyline style="fill:none;stroke:#2A1510;stroke-linecap:round;stroke-linejoin:round;stroke-miterlimit:10;" points="
					149.162,307.665 184.098,289.44 205.795,321.623 				"/>
			</g>
			<path style="fill:none;stroke:#2A1510;stroke-linecap:round;stroke-linejoin:round;stroke-miterlimit:10;" d="M141.65,344.871"/>
			<g>
				<g>
					<path style="fill:#F77F54;" d="M344.473,214.208c-3.303,3.254-6.606,6.508-9.909,9.763c-1.213,1.195-2.442,2.41-3.294,3.885
						c-1.248,2.161-1.598,4.748-1.43,7.238c0.169,2.49,0.825,4.918,1.478,7.327c3.698-1.224,6.536-4.153,9.217-6.98
						c2.055-2.167,4.142-4.379,5.464-7.057c2.022-4.094,2.021-9.13-0.004-13.224"/>
					<path style="fill:#F77F54;" d="M342.073,217.332c0.656-6.534,0.544-13.146-0.334-19.654c2.845,1.653,5.145,3.43,6.225,6.538
						c1.917,5.514,0.221,11.56-1.524,17.131"/>
					<polygon style="fill:#2A1510;" points="325.347,223.283 319.067,229.386 327.396,226.682 387.499,190.45 385.451,187.052 					
						"/>
					<g>
						<path style="fill:#F2AD93;" d="M366.859,221.874l10.118-18.298l-15.753-9.98l-12.659,7.01
							c-1.232,0.682-1.089,2.497,0.235,2.977l0,0c1.824,0.662,3.828,0.623,5.625-0.109l6.904-2.813l5.684,3.33l-5.847,9.296
							l-17.963-4.68l-6.232,17.379l2.621,2.386l-5.285,5.807c-2.329,2.559-3.67,5.863-3.784,9.322l-0.199,6.066l4.29,3.904
							L366.859,221.874z"/>
						
							<line style="fill:none;stroke:#2A1510;stroke-linecap:round;stroke-linejoin:round;stroke-miterlimit:10;" x1="341.268" y1="214.005" x2="357.886" y2="220.187"/>
						
							<line style="fill:none;stroke:#2A1510;stroke-linecap:round;stroke-linejoin:round;stroke-miterlimit:10;" x1="339.034" y1="220.236" x2="350.621" y2="225.454"/>
						<path style="fill:none;stroke:#2A1510;stroke-linecap:round;stroke-linejoin:round;stroke-miterlimit:10;" d="M336.7,226.041
							c2.554,2.704,5.856,4.695,9.44,5.691"/>
						<path style="fill:none;stroke:#2A1510;stroke-linecap:round;stroke-linejoin:round;stroke-miterlimit:10;" d="
							M340.582,229.423c0.244,0.926,0.488,1.852,0.732,2.778"/>
					</g>
				</g>
				<polygon style="fill:#F2AD93;" points="330.325,249.567 330.325,286.421 351.665,284.315 344.828,241.609 				"/>
			</g>
			<g>
				<polygon style="fill:#F4E6D0;" points="326.016,278.218 358.403,271.534 352.027,252.762 325.32,259.487 				"/>
				<path style="fill:#D13A3A;" d="M321.525,266.949l38.522-4.75l9.9,37.701c3.51,13.369-4.77,26.983-18.256,30.013h0
					c-15.157,3.406-29.597-8.027-29.758-23.562L321.525,266.949z"/>
				<polyline style="fill:none;stroke:#2A1510;stroke-linecap:round;stroke-linejoin:round;stroke-miterlimit:10;" points="
					321.933,306.352 321.525,266.949 360.047,262.199 				"/>
			</g>
		</g>
	</g>
</g>
<g id="TEXT">
	<g>
		<g>
			<g>
				
					<text transform="matrix(1 0 0 1 146.1779 39.5775)" style="fill:#006064; font-family:'PlayfairDisplay-Bold'; font-size:22.985px;">DIA DO ADVOGADO</text>
			</g>
			<g>
				<text transform="matrix(1 0 0 1 204.8439 60.3363)"><tspan x="0" y="0" style="fill:#006064; font-family:'Montserrat-Light'; font-size:14.5232px; letter-spacing:1;">11</tspan><tspan x="17.224" y="-4.455" style="fill:#006064; font-family:'Montserrat-Light'; font-size:8.4142px;">TH</tspan><tspan x="28.238" y="0" style="fill:#006064; font-family:'Montserrat-Light'; font-size:14.5232px; letter-spacing:1;"> AUGUST</tspan></text>
			</g>
		</g>
	</g>
</g>
</svg>
