<?xml version="1.0" encoding="utf-8"?>
<!-- Generator: Adobe Illustrator 27.5.0, SVG Export Plug-In . SVG Version: 6.00 Build 0)  -->
<svg version="1.1" xmlns="http://www.w3.org/2000/svg" xmlns:xlink="http://www.w3.org/1999/xlink" x="0px" y="0px"
	 viewBox="0 0 500 500" style="enable-background:new 0 0 500 500;" xml:space="preserve">
<g id="BACKGROUND">
	<rect y="-0.005" style="fill:#EBC17D;" width="500" height="500.01"/>
</g>
<g id="OBJECTS">
	<g>
		<defs>
			<rect id="SVGID_1_" y="-0.005" width="500" height="500.01"/>
		</defs>
		<clipPath id="SVGID_00000131366986959112217700000003922522728815970987_">
			<use xlink:href="#SVGID_1_"  style="overflow:visible;"/>
		</clipPath>
		<g style="clip-path:url(#SVGID_00000131366986959112217700000003922522728815970987_);">
			<g>
				<g>
					<path style="fill:#006064;" d="M83.166,284.984c-9.027,13.004-22.771,23.012-37.899,27.673
						c-2.807,0.865-6.697,1.088-7.831-1.621c-0.314-0.749-0.289-1.561-0.051-2.33c0.301-0.974,0.949-1.88,1.773-2.495
						c1.475-1.101,3.343-1.497,5.145-1.87c6.177-1.278,12.4-2.642,18.122-5.296c5.723-2.654,10.978-6.733,13.942-12.302
						c1.325-2.49,2.119-5.302,2.29-8.123c0.212-3.489-0.531-6.992-2.43-9.918c-2.096-3.231-5.367-5.539-7.603-8.673
						c-2.091-2.929-3.017-7.286-0.872-10.03c-0.756,0.827-1.606,1.526-2.535,2.111c-4.377,2.757-10.42,3.069-15.771,3.062
						c-4.507-0.006-9.224-0.216-13.577,0.692c-2.153,0.449-4.219,1.168-6.123,2.329c-6.233,3.801-9.108,11.4-9.982,18.649
						c-0.874,7.248-0.19,14.641-1.39,21.842c-0.388,2.329-1.337,4.976-3.284,6.036c-0.351,0.191-0.73,0.337-1.149,0.413
						c-1.867,0.34-3.757-0.835-4.787-2.429c-1.03-1.594-1.361-3.531-1.57-5.417c-1.408-12.754,1.977-25.981,9.34-36.49
						c-7.592,2.573-13.837,4.784-21.429,7.356c-6.752,14.088-7.898,31.535-1.637,45.848c1.146,2.619,2.518,5.22,2.797,8.065
						c0.272,2.775-0.821,5.913-3.308,7.121c-0.063,0.031-0.122,0.066-0.187,0.094c-2.647,1.148-5.858-0.287-7.594-2.591
						c-1.736-2.304-2.316-5.26-2.709-8.118c-2.222-16.173,0.085-32.943,6.592-47.915c-11.075,3.901-17.546,13.862-24.216,23.526
						c-4.003,5.8-8.01,11.606-11.614,17.663c-0.646,1.086-1.277,2.189-1.894,3.301c-5.162,9.308-9.116,19.502-8.736,30.071
						c0.425,11.832,7.573,24.061,18.982,27.225c8.551,2.371,17.946,0.466,26.368-2.829c-5.06,6.357-10.923,12.032-17.313,17.137
						c-1.864,1.489,0.459,4.385,2.33,2.889c5.657-4.52,10.969-9.49,15.678-14.98c-2.285,7.067-2.078,14.954,0.772,21.824
						c3.784,9.121,12.127,16.215,21.737,18.483c8.81,2.079,18.256,0.202,26.288-3.972c8.032-4.174,14.768-10.511,20.547-17.478
						c-7.395,1.913-15.391,1.35-22.308-1.889c-2.434-1.14-5.092-3.589-3.997-6.044c0.037-0.083,0.084-0.155,0.126-0.231
						c1.248-2.26,4.74-1.821,7.36-1.259c10.623,2.278,22.209-0.436,30.715-7.197c8.505-6.761,13.764-17.436,13.94-28.299
						c-12.353,11.293-28.671,17.395-45.406,17.192c-2.95-0.036-6.051-0.318-8.497-1.968c-2.167-1.462-3.562-4.315-2.869-6.747
						c0.089-0.313,0.203-0.621,0.364-0.916c1.003-1.833,3.168-2.777,5.253-2.91c2.085-0.133,4.146,0.409,6.182,0.877
						c8.263,1.898,16.932,2.624,25.211,0.797s16.151-6.406,20.829-13.476c4.678-7.07,5.707-16.732,1.564-24.128
						c-11.264,12.204-27.36,20.418-43.967,20.335c-2.061-0.01-4.207-0.151-6-1.168c-1.792-1.017-3.107-3.152-2.553-5.137
						c0.059-0.21,0.137-0.41,0.23-0.603c0.643-1.32,2.058-2.214,3.515-2.556c1.669-0.392,3.411-0.198,5.118-0.052
						c8.362,0.712,16.971,0.156,24.784-2.908c7.813-3.064,14.775-8.84,18.109-16.542C89.419,300.986,88.635,291.349,83.166,284.984z
						 M4.183,381.252c-1.481,1.425-4.382,1.312-5.652-0.359c-1.031-1.356-2.035-2.751-2.799-4.278
						c-1.004-2.007-0.043-4.325,1.848-5.352c1.916-1.041,4.415-0.025,5.352,1.848c0.172,0.345,0.351,0.684,0.549,1.016
						c0.007,0.012,0.015,0.025,0.023,0.037c0.226,0.114,0.922,1.283,1.038,1.436C5.903,377.389,5.839,379.659,4.183,381.252z
						 M16.552,374.365c-3.47-1.068-6.315-3.176-9.153-5.358c-1.72-1.323-2.374-3.655-1.106-5.554
						c1.143-1.713,3.84-2.424,5.554-1.106c2.321,1.784,4.536,3.593,7.319,4.449C24.103,368.315,21.473,375.879,16.552,374.365z
						 M8.199,320.41c-1.902,1.033-4.436,0.035-5.352-1.848l-1.534-3.152c-0.982-2.018-0.06-4.316,1.848-5.352
						c1.902-1.033,4.436-0.036,5.352,1.848l1.535,3.152C11.029,317.076,10.106,319.373,8.199,320.41z"/>
				</g>
				<path style="fill:none;stroke:#231F20;stroke-miterlimit:10;" d="M61.828,260.567c-9.968,9.296-20.03,18.699-27.634,30.01
					c-10.055,14.958-15.34,32.518-22.67,48.984c-7.331,16.465-17.639,32.78-33.769,40.823"/>
				<path style="fill:none;stroke:#231F20;stroke-miterlimit:10;" d="M36.847,262.446c0.111,8.059,0.223,16.119,0.334,24.178
					c10.089-2.541,20.048-5.599,29.825-9.157"/>
				<path style="fill:none;stroke:#231F20;stroke-miterlimit:10;" d="M-2.695,287.322c-1.263,15.218,2.127,30.79,9.6,44.106
					c2.039,3.633,3.677,8.323,2.662,12.364c3.434-2.256,8.557-3.455,12.644-3.033c4.087,0.422,8.027,1.699,11.992,2.774
					c6.15,1.666,12.507,2.863,18.867,2.482s12.765-2.451,17.536-6.674"/>
				<path style="fill:none;stroke:#231F20;stroke-miterlimit:10;" d="M-35.428,311.744c-2.371,7.979-0.217,16.796,4.159,23.876
					c4.377,7.08,10.78,12.666,17.409,17.701c2.407,1.828,4.91,3.655,6.571,6.18s2.316,5.96,0.788,8.568
					c4.759-1.095,9.701,0.836,13.887,3.351c4.186,2.516,8.041,5.671,12.602,7.418c5.82,2.229,12.36,1.96,18.394,0.398
					c6.034-1.561,11.669-4.344,17.255-7.109"/>
			</g>
			<g>
				<g>
					<path style="fill:#24767A;" d="M102.558,393.761c-12.79,9.327-29.055,14.278-44.875,13.725
						c-2.935-0.103-6.684-1.167-6.867-4.098c-0.051-0.811,0.239-1.569,0.715-2.218c0.603-0.821,1.513-1.465,2.493-1.776
						c1.754-0.557,3.649-0.319,5.474-0.08c6.255,0.817,12.581,1.567,18.857,0.935c6.277-0.632,12.579-2.764,17.204-7.053
						c2.068-1.918,3.739-4.314,4.826-6.924c1.343-3.227,1.789-6.78,0.955-10.166c-0.921-3.739-3.255-6.991-4.341-10.686
						c-1.015-3.453-0.463-7.872,2.464-9.762c-0.985,0.534-2.018,0.915-3.087,1.164c-5.039,1.17-10.85-0.515-15.903-2.275
						c-4.256-1.483-8.644-3.227-13.054-3.795c-2.182-0.281-4.369-0.279-6.548,0.194c-7.135,1.548-12.341,7.786-15.543,14.348
						c-3.201,6.561-4.977,13.77-8.471,20.181c-1.13,2.073-2.894,4.263-5.08,4.626c-0.394,0.065-0.8,0.079-1.221,0.014
						c-1.875-0.291-3.276-2.02-3.726-3.863c-0.45-1.843-0.129-3.782,0.292-5.632c2.849-12.512,10.382-23.898,20.783-31.414
						c-8.016-0.058-14.64-0.015-22.656-0.073c-10.996,11.097-17.796,27.206-16.572,42.78c0.224,2.85,0.668,5.757-0.001,8.536
						c-0.653,2.711-2.713,5.317-5.46,5.644c-0.069,0.008-0.137,0.022-0.207,0.027c-2.877,0.217-5.44-2.191-6.326-4.937
						c-0.885-2.746-0.464-5.728,0.101-8.558c3.201-16.008,10.876-31.096,21.93-43.109c-11.742,0.056-21.12,7.346-30.589,14.29
						c-5.683,4.168-11.371,8.34-16.761,12.881c-0.967,0.814-1.924,1.649-2.871,2.498c-7.928,7.103-15.003,15.437-18.108,25.547
						c-3.476,11.318-0.731,25.214,9.011,31.942c7.302,5.042,16.802,6.322,25.839,5.969c-6.864,4.348-14.263,7.788-21.973,10.517
						c-2.249,0.796-1.004,4.293,1.254,3.493c6.826-2.417,13.473-5.371,19.722-9.015c-4.475,5.928-6.864,13.447-6.423,20.871
						c0.586,9.858,6.143,19.293,14.48,24.586c7.642,4.852,17.181,6.174,26.138,4.863c8.957-1.311,17.397-5.091,25.14-9.78
						c-7.613-0.616-14.983-3.769-20.457-9.095c-1.927-1.875-3.635-5.06-1.795-7.02c0.062-0.066,0.13-0.118,0.195-0.177
						c1.92-1.727,5.075-0.168,7.366,1.222c9.29,5.634,21.126,6.866,31.377,3.266c10.251-3.6,18.718-11.962,22.445-22.168
						c-15.371,6.621-32.788,7.039-48.533,1.362c-2.776-1-5.613-2.284-7.383-4.644c-1.568-2.091-1.951-5.245-0.499-7.315
						c0.187-0.266,0.395-0.52,0.644-0.746c1.549-1.403,3.903-1.586,5.917-1.028c2.014,0.558,3.783,1.745,5.553,2.855
						c7.184,4.501,15.138,8.028,23.557,9.015c8.42,0.987,17.359-0.76,24.096-5.906c6.737-5.146,10.875-13.938,9.385-22.283
						c-14.641,7.839-32.541,10.324-48.204,4.803c-1.944-0.685-3.926-1.521-5.286-3.07c-1.36-1.548-1.903-3.996-0.728-5.69
						c0.124-0.179,0.264-0.343,0.415-0.494c1.04-1.036,2.67-1.417,4.158-1.263c1.705,0.176,3.287,0.931,4.853,1.628
						c7.667,3.413,15.983,5.709,24.368,5.375c8.385-0.334,16.856-3.51,22.53-9.693C103.223,410.928,105.64,401.566,102.558,393.761z
						 M-3.611,458.828c-1.866,0.861-4.57-0.197-5.223-2.191c-0.53-1.619-1.02-3.266-1.242-4.959c-0.291-2.225,1.377-4.1,3.5-4.451
						c2.152-0.356,4.18,1.424,4.451,3.5c0.05,0.382,0.108,0.762,0.185,1.139c0.003,0.014,0.007,0.028,0.009,0.043
						c0.176,0.181,0.451,1.514,0.51,1.697C-0.72,455.741-1.525,457.865-3.611,458.828z M10.332,456.374
						c-2.929-2.146-4.926-5.07-6.892-8.062c-1.192-1.814-1.044-4.231,0.775-5.61c1.641-1.244,4.422-1.031,5.61,0.775
						c1.608,2.446,3.108,4.881,5.456,6.602C19.448,453.133,14.485,459.418,10.332,456.374z M20.122,402.662
						c-2.135,0.353-4.202-1.42-4.451-3.5l-0.417-3.481c-0.267-2.229,1.357-4.097,3.5-4.451c2.135-0.353,4.202,1.42,4.451,3.5
						l0.417,3.481C23.888,400.439,22.264,402.307,20.122,402.662z"/>
				</g>
				<path style="fill:none;stroke:#231F20;stroke-miterlimit:10;" d="M90.401,363.699c-12.464,5.515-25.051,11.102-35.943,19.297
					c-14.402,10.836-25.149,25.695-37.471,38.849c-12.322,13.154-27.407,25.189-45.282,27.502"/>
				<path style="fill:none;stroke:#231F20;stroke-miterlimit:10;" d="M66.184,357.287c-2.536,7.651-5.072,15.302-7.608,22.952
					c10.365,0.905,20.776,1.28,31.179,1.123"/>
				<path style="fill:none;stroke:#231F20;stroke-miterlimit:10;" d="M20.674,367.832c-6.18,13.964-8.081,29.787-5.384,44.817
					c0.736,4.101,0.747,9.068-1.537,12.553c3.983-1.006,9.217-0.46,12.939,1.278c3.723,1.738,7.027,4.236,10.421,6.551
					c5.264,3.59,10.878,6.804,17.012,8.528c6.134,1.724,12.864,1.868,18.755-0.558"/>
				<path style="fill:none;stroke:#231F20;stroke-miterlimit:10;" d="M-18.255,380.177c-4.855,6.761-5.71,15.797-3.895,23.92
					c1.814,8.124,6.034,15.499,10.646,22.429c1.675,2.516,3.441,5.062,4.183,7.992c0.742,2.93,0.235,6.39-2.064,8.353
					c4.855,0.525,8.891,3.969,12.022,7.717c3.13,3.748,5.739,7.993,9.475,11.138c4.768,4.013,11.035,5.902,17.248,6.405
					c6.212,0.502,12.448-0.28,18.632-1.061"/>
			</g>
		</g>
		<g style="clip-path:url(#SVGID_00000131366986959112217700000003922522728815970987_);">
			
				<ellipse transform="matrix(0.7071 -0.7071 0.7071 0.7071 -97.5307 159.5099)" style="fill:#6C301E;" cx="143.78" cy="197.485" rx="83.799" ry="83.799"/>
			
				<ellipse transform="matrix(0.7071 -0.7071 0.7071 0.7071 -97.5307 159.5099)" style="fill:#D4B26E;" cx="143.78" cy="197.485" rx="78.651" ry="78.651"/>
			
				<ellipse transform="matrix(0.1687 -0.9857 0.9857 0.1687 -75.1296 305.8896)" style="fill:#F0DAAC;" cx="143.78" cy="197.485" rx="75.458" ry="75.458"/>
			<path style="fill:#D4B26E;" d="M193.247,207.498l-17.253-47.816c0.072-0.02,0.147-0.047,0.219-0.077
				c0.883-0.371,1.388-1.246,1.5-2.611l0.01-0.105l-0.018-0.104c-0.199-1.196-0.893-2.02-1.9-2.266
				c-1.076-0.264-2.258,0.214-3.011,1.216l1.358,1.017c0.333-0.443,0.848-0.682,1.253-0.582c0.206,0.047,0.348,0.187,0.448,0.356
				c0.142,0.249,0.159,0.549,0.095,0.828c-0.075,0.341-0.194,0.575-0.346,0.662c-0.012,0.01-0.027,0.017-0.04,0.025
				c-0.082,0.032-0.181,0.047-0.293,0.037c-0.042,0-0.092-0.005-0.142-0.015c-0.149-0.022-0.316-0.07-0.49-0.134
				c-0.56-0.214-1.204-0.619-1.639-0.977l-0.721-0.604l-0.527,0.783c-0.002,0.01-0.527,0.754-1.472,0.868
				c-0.888,0.112-1.902-0.348-3.022-1.363c-4.054-3.686-6.805-2.945-11.717-1.189c-3.303,1.179-7.155,0.296-8.921-0.234
				c-0.139-0.761-0.574-1.415-1.186-1.843c0.139-0.306,0.216-0.657,0.216-1.029c0-1.219-0.836-2.206-1.868-2.206
				c-1.029,0-1.865,0.987-1.865,2.206c0,0.373,0.077,0.724,0.216,1.029c-0.612,0.425-1.049,1.081-1.189,1.842
				c-1.767,0.531-5.617,1.413-8.92,0.235c-4.911-1.755-7.664-2.498-11.717,1.188c-1.12,1.015-2.135,1.477-3.021,1.365
				c-0.947-0.116-1.469-0.859-1.473-0.869l-0.526-0.784l-0.723,0.604c-0.435,0.36-1.08,0.763-1.64,0.978
				c-0.173,0.064-0.339,0.112-0.489,0.136c-0.051,0.009-0.096,0.008-0.143,0.01l-0.047-0.146c-0.102,0.038-0.193,0.055-0.289,0.08
				c-0.148-0.094-0.268-0.317-0.343-0.653c-0.063-0.28-0.047-0.581,0.096-0.83c0.098-0.169,0.24-0.307,0.448-0.356
				c0.404-0.098,0.92,0.139,1.253,0.584l1.358-1.018c-0.754-1.001-1.935-1.48-3.011-1.215c-1.008,0.244-1.7,1.069-1.901,2.264
				l-0.017,0.105l0.01,0.105c0.112,1.365,0.618,2.24,1.5,2.61c0.072,0.031,0.148,0.045,0.223,0.067l-17.257,47.826h-1.787v1.755
				c0,2.217,1.798,4.016,4.015,4.016h28.628c2.217,0,4.015-1.798,4.015-4.016v-1.755h-1.072l-14.929-46.638l-0.173-1.186
				c0.145-0.035,0.289-0.075,0.431-0.127c0.601-0.21,1.15-0.533,1.561-0.811c0.448,0.394,1.144,0.835,2.074,0.95
				c1.399,0.17,2.868-0.434,4.369-1.796c3.323-3.021,5.166-2.576,10.006-0.849c3.731,1.334,8.211,1.018,10.305,0.749
				c0,0.001,0.001,0.001,0.001,0.001c0.102,0.099,0.211,0.191,0.326,0.276c0.007,0.515,0.047,2.482,0.338,3.947
				c0.072,0.358,0.144,0.701,0.207,1.037c-2.636,0.095-4.618,0.507-4.618,1c0,0.505,2.074,0.923,4.8,1.002
				c-0.022,0.624-0.134,1.291-0.388,2.052c-0.679,2.037,0,2.716,0,2.716s-6.108,2.037-5.429,3.054c0.679,1.02,4.75,1.02,4.071,6.79
				c-0.679,5.77-1.358,7.128-2.037,10.522c-0.679,3.393-1.017,7.128-0.338,9.844c0.679,2.713,2.037,2.034,2.037,4.412
				c0,2.376,2.037,8.825-1.02,14.935c-3.054,6.109,2.378,6.449,1.699,11.202c-0.679,4.75-3.395,7.127-9.844,9.502
				s-7.807,4.753-3.395,4.753s15.614,0,15.614,0s11.202,0,15.613,0c4.412,0,3.054-2.378-3.395-4.753s-9.164-4.752-9.841-9.502
				c-0.679-4.754,4.75-5.094,1.696-11.202c-3.053-6.11-1.019-12.559-1.019-14.935c0-2.378,1.358-1.699,2.036-4.412
				c0.679-2.716,0.341-6.451-0.338-9.844c-0.679-3.395-1.358-4.753-2.037-10.522c-0.679-5.77,3.395-5.77,4.074-6.79
				c0.679-1.017-5.432-3.054-5.432-3.054s0.679-0.679,0-2.716c-0.254-0.761-0.363-1.428-0.385-2.052
				c2.726-0.082,4.797-0.5,4.797-1.002c0-0.493-1.982-0.905-4.616-1c0.059-0.336,0.132-0.679,0.204-1.037
				c0.294-1.467,0.333-3.44,0.338-3.949c0.114-0.082,0.224-0.174,0.326-0.276c2.092,0.268,6.576,0.587,10.306-0.749
				c4.84-1.726,6.683-2.171,10.005,0.851c1.502,1.36,2.972,1.965,4.37,1.795c0.93-0.117,1.626-0.557,2.074-0.953
				c0.41,0.279,0.96,0.602,1.562,0.813c0.142,0.05,0.283,0.095,0.43,0.127l-0.174,1.191l-14.93,46.632h-1.07v1.542
				c0,2.335,1.893,4.228,4.228,4.228h28.2c2.336,0,4.228-1.893,4.228-4.228v-1.542H193.247z M94.855,207.498l17.224-47.734
				c0.053,0.003,0.106,0.014,0.159,0.014c0.022,0,0.045-0.004,0.067-0.004l0.379,1.183l6.783,46.541H94.855z M127.582,207.498h-7.6
				l-6.353-43.591L127.582,207.498z M159.981,207.498l13.952-43.588l-6.354,43.588H159.981z M168.096,207.498l6.782-46.547
				l0.378-1.177c0.022,0.003,0.045,0.003,0.067,0.003c0.052,0,0.107-0.003,0.159-0.005l17.225,47.726H168.096z"/>
		</g>
		<g style="clip-path:url(#SVGID_00000131366986959112217700000003922522728815970987_);">
			<rect x="310.286" y="19.934" style="fill:#F0DAAC;" width="189.714" height="7.708"/>
			<rect x="310.286" y="34.444" style="fill:#F0DAAC;" width="189.714" height="7.708"/>
			<rect x="310.286" y="48.954" style="fill:#F0DAAC;" width="189.714" height="7.708"/>
			<rect x="310.286" y="63.464" style="fill:#F0DAAC;" width="189.714" height="7.708"/>
			<rect x="310.286" y="77.975" style="fill:#F0DAAC;" width="189.714" height="7.708"/>
			<rect x="310.286" y="92.485" style="fill:#F0DAAC;" width="189.714" height="7.708"/>
			<rect x="310.286" y="106.995" style="fill:#F0DAAC;" width="189.714" height="7.708"/>
			<rect x="310.286" y="121.505" style="fill:#F0DAAC;" width="189.714" height="7.708"/>
			<rect x="310.286" y="136.016" style="fill:#F0DAAC;" width="189.714" height="7.708"/>
			<rect x="310.286" y="150.526" style="fill:#F0DAAC;" width="189.714" height="7.708"/>
			<rect x="310.286" y="165.036" style="fill:#F0DAAC;" width="189.714" height="7.708"/>
			<rect x="310.286" y="179.546" style="fill:#F0DAAC;" width="189.714" height="7.708"/>
			<rect x="310.286" y="194.057" style="fill:#F0DAAC;" width="189.714" height="7.708"/>
			<rect x="310.286" y="208.567" style="fill:#F0DAAC;" width="189.714" height="7.708"/>
			<rect x="310.286" y="223.077" style="fill:#F0DAAC;" width="189.714" height="7.708"/>
			<rect x="310.286" y="237.587" style="fill:#F0DAAC;" width="189.714" height="7.708"/>
			<rect x="310.286" y="252.098" style="fill:#F0DAAC;" width="189.714" height="7.708"/>
			<rect x="310.286" y="266.608" style="fill:#F0DAAC;" width="189.714" height="7.708"/>
			<rect x="310.286" y="281.118" style="fill:#F0DAAC;" width="189.714" height="7.708"/>
			<rect x="310.286" y="295.628" style="fill:#F0DAAC;" width="189.714" height="7.708"/>
			<rect x="310.286" y="310.139" style="fill:#F0DAAC;" width="189.714" height="7.708"/>
			<rect x="310.286" y="324.649" style="fill:#F0DAAC;" width="189.714" height="7.708"/>
			<rect x="310.286" y="339.159" style="fill:#F0DAAC;" width="189.714" height="7.708"/>
			<rect x="310.286" y="353.669" style="fill:#F0DAAC;" width="189.714" height="7.708"/>
			<rect x="310.286" y="368.18" style="fill:#F0DAAC;" width="189.714" height="7.708"/>
			<rect x="310.286" y="382.69" style="fill:#F0DAAC;" width="189.714" height="7.708"/>
			<rect x="310.286" y="397.2" style="fill:#F0DAAC;" width="189.714" height="7.708"/>
			<rect x="310.286" y="411.711" style="fill:#F0DAAC;" width="189.714" height="7.708"/>
			<rect x="310.286" y="426.221" style="fill:#F0DAAC;" width="189.714" height="7.708"/>
			<rect x="310.286" y="440.731" style="fill:#F0DAAC;" width="189.714" height="7.708"/>
		</g>
		<g style="clip-path:url(#SVGID_00000131366986959112217700000003922522728815970987_);">
			<g style="opacity:0.7;">
				<path style="fill:#C7A36A;" d="M98.135,408.353c5.378,1.96,7.75,2.827,8.744,3.185c0.519,0.193,0.663,0.242,0.663,0.242
					s0.037,0.014,0.131,0.048c0.477,0.176,2.474,0.901,9.276,3.382c3.064,1.113,5.811,0.949,7.868,0.085
					c1.584-0.655,2.756-1.734,3.327-2.954c0.223-0.479,0.366-0.973,0.4-1.475c0.06-0.883-0.192-1.784-0.804-2.611
					c-0.081-0.112-0.168-0.218-0.263-0.33c-0.589-0.672-0.964-1.274-1.183-1.817c-0.385-0.956-0.269-1.714,0.06-2.295
					c0.369-0.659,1.006-1.091,1.515-1.318c1.72,0.453,3.53-0.47,4.153-2.175c0.589-1.624-0.103-3.399-1.557-4.225l1.103-3.031
					c0,0,29.219,7.96,41.995,12.342c0.002,0.859,0.222,1.481,0.663,1.64c0.242,0.089,0.525,0.022,0.821-0.153
					c-0.034,0.934,0.152,1.585,0.563,1.734c0.413,0.149,0.972-0.231,1.547-0.966c0.112,0.326,0.284,0.557,0.525,0.645
					c0.45,0.163,1.035-0.186,1.596-0.863c1.24,0.464,2.47,0.932,3.676,1.413c14.725,5.846,30.391,15.945,39.065,16.786
					c0.732,1.119,1.816,2.028,3.172,2.522c3.343,1.218,7.039-0.5,8.255-3.842c1.217-3.343-0.506-7.041-3.843-8.254
					c-1.357-0.497-2.773-0.5-4.054-0.11c-7.181-4.944-25.672-7.288-40.708-12.29c-1.23-0.41-2.475-0.839-3.721-1.281
					c0.006-0.884-0.216-1.524-0.667-1.688c-0.24-0.089-0.522-0.022-0.815,0.156c0.028-0.935-0.154-1.586-0.567-1.735
					c-0.409-0.149-0.968,0.232-1.543,0.965c-0.112-0.325-0.288-0.558-0.53-0.643c-0.441-0.165-1.012,0.171-1.566,0.829
					c-12.601-4.87-40.084-17.576-40.084-17.576l1.134-3.108c1.591,0.223,3.18-0.686,3.751-2.256
					c0.643-1.759-0.223-3.697-1.932-4.409c-0.241-0.5-0.444-1.235-0.302-1.965c0.116-0.656,0.518-1.313,1.426-1.797
					c0.52-0.273,1.199-0.497,2.082-0.633c0.14-0.02,0.274-0.046,0.406-0.083c1.006-0.236,1.778-0.764,2.297-1.477
					c0.296-0.408,0.512-0.877,0.645-1.388c0.343-1.301,0.142-2.88-0.645-4.408c-1.02-1.982-3.017-3.875-6.079-4.994
					c-8.181-2.982-9.407-3.428-9.407-3.428s-0.061-0.021-0.244-0.091c-0.161-0.056-0.411-0.144-0.794-0.288
					c-1.17-0.426-3.577-1.3-8.369-3.049c-3.064-1.114-5.808-0.949-7.864-0.085c-1.583,0.658-2.756,1.735-3.328,2.956
					c-0.228,0.478-0.366,0.974-0.398,1.475c-0.066,0.881,0.185,1.782,0.802,2.612c0.081,0.111,0.165,0.214,0.259,0.326
					c0.589,0.673,0.968,1.277,1.188,1.82c0.383,0.956,0.269,1.715-0.064,2.294c-0.366,0.66-1.006,1.091-1.511,1.319
					c-1.719-0.452-3.529,0.47-4.156,2.174c-0.59,1.625,0.101,3.399,1.555,4.224l-6.013,16.508c-1.592-0.223-3.181,0.686-3.752,2.256
					c-0.642,1.759,0.223,3.697,1.93,4.407c0.239,0.5,0.446,1.237,0.304,1.967c-0.119,0.655-0.521,1.312-1.429,1.796
					c-0.517,0.274-1.195,0.497-2.078,0.634c-0.14,0.021-0.279,0.045-0.411,0.082c-1.002,0.238-1.773,0.766-2.291,1.479
					c-0.3,0.406-0.512,0.876-0.646,1.388c-0.346,1.299-0.145,2.879,0.642,4.406C93.076,405.342,95.073,407.236,98.135,408.353z"/>
				<path style="fill:#C7A36A;" d="M142.025,438.669c0.002-0.029,0.013-0.054,0.013-0.083v-4.692c0-1.03-0.643-1.875-1.436-1.892
					v-6.579c0-2.249-1.123-4.16-2.682-4.844c0.01-0.091,0.013-0.188,0.013-0.282v-1.154c0-1.439-0.901-2.611-2.017-2.611H83.313
					c-1.113,0-2.017,1.172-2.017,2.611v1.154c0,0.095,0.004,0.191,0.013,0.282c-1.559,0.684-2.682,2.595-2.682,4.844v6.579
					c-0.797,0.021-1.436,0.861-1.436,1.892v4.692c0,0.03,0.011,0.054,0.013,0.083H24.566v12.322h8.894v7.142V500h447.916v-41.867
					v-7.142h8.894v-12.322H142.025z"/>
			</g>
			<g>
				<g>
					<g>
						<path style="fill:#2A1510;" d="M130.516,419.143v1.154c0,0.095-0.003,0.191-0.013,0.282c-0.109,1.311-0.961,2.329-2.004,2.329
							H75.896c-1.039,0-1.896-1.018-2.004-2.329c-0.009-0.091-0.013-0.188-0.013-0.282v-1.154c0-1.439,0.904-2.611,2.017-2.611
							h52.603C129.615,416.532,130.516,417.704,130.516,419.143z"/>
						<path style="fill:#89411D;" d="M133.185,425.423v10.296H71.209v-10.296c0-2.249,1.123-4.16,2.682-4.844
							c0.397-0.174,0.824-0.27,1.268-0.27h54.076c0.443,0,0.871,0.097,1.268,0.27C132.062,421.263,133.185,423.174,133.185,425.423z
							"/>
						<path style="fill:#2A1510;" d="M134.621,433.894v4.692c0,0.472-0.296,0.855-0.659,0.855H70.432
							c-0.363,0-0.659-0.383-0.659-0.855v-4.692c0-1.03,0.639-1.871,1.436-1.892h61.976
							C133.977,432.019,134.621,432.864,134.621,433.894z"/>
					</g>
					<g>
						<g>
							<path style="fill:#2A1510;" d="M226.032,424.322c-1.216,3.342-4.912,5.06-8.255,3.842c-1.355-0.494-2.44-1.403-3.172-2.522
								c-8.675-0.841-24.341-10.94-39.065-16.786c-1.206-0.481-2.436-0.949-3.676-1.413c-0.561,0.678-1.146,1.026-1.596,0.863
								c-0.241-0.089-0.413-0.319-0.525-0.646c-0.575,0.734-1.134,1.115-1.547,0.966c-0.41-0.149-0.597-0.801-0.563-1.734
								c-0.297,0.176-0.579,0.242-0.821,0.153c-0.441-0.159-0.661-0.78-0.663-1.64c-12.776-4.383-41.995-12.342-41.995-12.342
								l-4.298-1.567l3.779-10.368l4.299,1.567c0,0,27.483,12.706,40.084,17.576c0.555-0.659,1.125-0.994,1.566-0.829
								c0.242,0.085,0.418,0.318,0.53,0.643c0.575-0.733,1.134-1.114,1.543-0.965c0.413,0.149,0.595,0.8,0.566,1.735
								c0.293-0.178,0.575-0.245,0.815-0.156c0.451,0.164,0.673,0.804,0.667,1.688c1.246,0.442,2.49,0.871,3.721,1.281
								c15.036,5.002,33.527,7.346,40.708,12.29c1.281-0.39,2.696-0.387,4.054,0.11
								C225.526,417.281,227.249,420.979,226.032,424.322z"/>
							<polygon style="fill:#2A1510;" points="129.178,379.285 129.068,379.587 127.934,382.695 124.154,393.063 123.05,396.094 
								122.916,396.462 107.62,390.889 106.827,390.601 92.246,385.284 92.37,384.945 98.383,368.437 98.503,368.105 
								112.893,373.35 113.686,373.638 							"/>
							<g>
								<path style="fill:#89411D;" d="M120.728,412.34c-0.571,1.22-1.743,2.299-3.327,2.954c-2.058,0.864-4.805,1.028-7.868-0.085
									c-6.802-2.48-8.799-3.206-9.276-3.382c-0.094-0.034-0.131-0.048-0.131-0.048s-0.144-0.049-0.663-0.242
									c-0.995-0.357-3.366-1.225-8.745-3.185c-3.063-1.117-5.06-3.011-6.079-4.994c-0.787-1.527-0.988-3.106-0.643-4.406
									c0.134-0.511,0.345-0.982,0.646-1.388c0.519-0.713,1.29-1.241,2.291-1.479c0.133-0.036,0.271-0.061,0.412-0.082
									c0.883-0.137,1.561-0.36,2.078-0.634c0.909-0.484,1.31-1.14,1.429-1.795c0.142-0.73-0.065-1.467-0.304-1.967
									c-0.171-0.355-0.355-0.591-0.45-0.624l14.845,4.971l0.8,0.268l0.045,0.015l15.395,6.073
									c-0.095-0.034-0.381,0.028-0.729,0.182c-0.509,0.227-1.146,0.659-1.515,1.318c-0.329,0.581-0.445,1.339-0.061,2.295
									c0.22,0.543,0.595,1.146,1.184,1.817c0.095,0.112,0.182,0.218,0.263,0.33c0.612,0.827,0.864,1.729,0.804,2.611
									C121.094,411.368,120.952,411.862,120.728,412.34z"/>
							</g>
							<path style="fill:#662A10;" d="M124.607,400.318c-0.623,1.706-2.434,2.628-4.153,2.175c-0.093-0.023-0.186-0.051-0.276-0.083
								l-0.036-0.012l-14.686-5.354l-0.795-0.289l-13.967-5.091c-0.049-0.018-0.097-0.039-0.146-0.056
								c-1.707-0.71-2.572-2.648-1.93-4.407c0.571-1.571,2.16-2.479,3.752-2.256c0.225,0.029,0.454,0.086,0.676,0.164l0.037,0.013
								l13.89,5.064l0.793,0.289l14.761,5.38c0.184,0.069,0.357,0.148,0.524,0.239C124.504,396.919,125.196,398.694,124.607,400.318
								z"/>
							<g>
								<path style="fill:#89411D;" d="M136.795,366.967c-0.518,0.713-1.291,1.24-2.297,1.477c-0.132,0.037-0.267,0.063-0.406,0.083
									c-0.883,0.137-1.563,0.36-2.082,0.633c-0.908,0.484-1.31,1.141-1.426,1.797c-0.142,0.73,0.061,1.465,0.302,1.965
									c0.17,0.355,0.354,0.591,0.448,0.624l-15.69-5.254l-0.068-0.029l-0.786-0.309l-14.535-5.734
									c0.09,0.032,0.379-0.028,0.729-0.182c0.505-0.228,1.146-0.659,1.511-1.319c0.333-0.579,0.447-1.337,0.064-2.294
									c-0.22-0.543-0.598-1.147-1.188-1.82c-0.094-0.112-0.178-0.215-0.259-0.326c-0.617-0.831-0.868-1.731-0.802-2.612
									c0.032-0.501,0.17-0.997,0.398-1.475c0.572-1.22,1.745-2.298,3.328-2.956c2.057-0.863,4.801-1.029,7.864,0.085
									c4.792,1.749,7.199,2.624,8.369,3.049c0.383,0.144,0.633,0.232,0.794,0.288c0.184,0.07,0.244,0.091,0.244,0.091
									s1.227,0.445,9.407,3.428c3.063,1.119,5.06,3.011,6.079,4.994c0.787,1.528,0.988,3.107,0.646,4.408
									C137.307,366.09,137.091,366.56,136.795,366.967z"/>
							</g>
							<path style="fill:#662A10;" d="M132.819,377.331c-0.571,1.57-2.16,2.479-3.751,2.256c-0.226-0.028-0.454-0.086-0.676-0.164
								l-0.038-0.013l-14.801-5.394l-0.794-0.289l-13.852-5.051c-0.183-0.069-0.358-0.148-0.524-0.24
								c-1.454-0.825-2.145-2.6-1.555-4.224c0.626-1.704,2.437-2.626,4.156-2.174c0.093,0.023,0.185,0.051,0.276,0.083l0.036,0.013
								l13.774,5.024l0.794,0.288l14.874,5.42c0.052,0.018,0.099,0.039,0.148,0.056
								C132.596,373.634,133.462,375.572,132.819,377.331z"/>
							<path style="fill:#894E34;" d="M97.22,362.077"/>
							<path style="fill:#B4711A;" d="M116.418,357.1"/>
						</g>
					</g>
				</g>
				<g>
					<rect x="17.148" y="438.669" style="fill:#6C301E;" width="465.703" height="12.322"/>
					<rect x="26.042" y="450.991" style="fill:#6C301E;" width="447.916" height="49.009"/>
					<rect x="26.042" y="450.991" style="fill:#3D1B11;" width="447.916" height="7.142"/>
				</g>
			</g>
		</g>
		<g style="clip-path:url(#SVGID_00000131366986959112217700000003922522728815970987_);">
			<g>
				<g>
					<polygon style="fill:#223D44;" points="239.847,499.981 329.177,499.981 353.308,499.981 435.254,499.981 435.254,370.915 
						261.531,376.495 					"/>
					<g>
						<g>
							<path style="fill:#F4E6D0;" d="M302.596,48.003c-4.251,1.83-7.333,6.121-7.709,10.734
								c-6.071-1.955-13.365,1.481-15.724,7.407s0.579,13.435,6.333,16.186c-2.083,5.405-0.993,11.905,2.739,16.335
								c3.732,4.43,9.953,6.608,15.633,5.473c5.419-1.082,10.02-4.939,12.88-9.668c2.86-4.728,4.136-10.263,4.647-15.765
								c0.781-8.41,0.095-17.723-2.926-25.682C316.248,47.166,308.012,45.672,302.596,48.003z"/>
							<path style="fill:#DBCFBB;" d="M303.18,52.833c-3.887,1.673-6.705,5.597-7.049,9.815c-5.551-1.787-12.221,1.355-14.378,6.773
								c-2.157,5.418,0.53,12.285,5.791,14.801c-1.905,4.942-0.908,10.886,2.505,14.937c3.412,4.051,9.101,6.042,14.295,5.005
								c4.955-0.99,9.162-4.517,11.777-8.84c2.615-4.324,3.782-9.384,4.25-14.415c0.714-7.691,0.086-16.206-2.675-23.483
								C315.662,52.068,308.132,50.702,303.18,52.833z"/>
						</g>
						<g>
							<path style="fill:#F4E6D0;" d="M365.9,48.003c4.251,1.83,7.333,6.121,7.709,10.734c6.071-1.955,13.365,1.481,15.724,7.407
								S388.753,79.578,383,82.33c2.083,5.405,0.993,11.905-2.739,16.335c-3.732,4.43-9.953,6.608-15.633,5.473
								c-5.419-1.082-10.02-4.939-12.88-9.668c-2.86-4.728-4.136-10.263-4.647-15.765c-0.781-8.41-0.095-17.723,2.926-25.682
								C352.249,47.166,360.484,45.672,365.9,48.003z"/>
							<path style="fill:#DBCFBB;" d="M365.317,52.833c3.887,1.673,6.705,5.597,7.049,9.815c5.551-1.787,12.221,1.355,14.378,6.773
								c2.157,5.418-0.53,12.285-5.791,14.801c1.905,4.942,0.908,10.886-2.505,14.937c-3.413,4.051-9.101,6.042-14.295,5.005
								c-4.955-0.99-9.163-4.517-11.778-8.84c-2.615-4.324-3.782-9.384-4.25-14.415c-0.714-7.691-0.087-16.206,2.675-23.483
								C352.834,52.068,360.365,50.702,365.317,52.833z"/>
						</g>
						<g>
							<g>
								<path style="fill:#DB9D86;" d="M301.097,127.416c0.234,9.585,0.467,19.17,0.701,28.755c-1.357,0.864-3.051,2.097-4.408,2.96
									c13.048,10.756,27.382,20.32,42.499,27.899c12.01-8.115,21.942-17.898,30.746-29.414c-2.838-0.615-5.653-1.094-8.491-1.709
									c-0.361-1.452-0.69-2.913-1.002-4.38C339.113,156.818,317.517,142.854,301.097,127.416z"/>
								<path style="fill:#DB744F;" d="M300.282,94.004c0.271,11.137,0.543,22.275,0.814,33.412
									c16.421,15.438,38.017,29.402,60.045,24.11c-2.752-12.969-3.632-26.482-4.065-39.701
									C343.194,98.435,319.499,92.357,300.282,94.004z"/>
							</g>
							<g>
								<path style="fill:#DB744F;" d="M300.072,89.341c-0.98-1.731-2.009-3.517-3.622-4.681c-1.614-1.164-3.989-1.523-5.551-0.291
									c-0.969,0.764-1.467,2.011-1.562,3.241c-0.095,1.23,0.17,2.459,0.491,3.651c0.575,2.137,1.337,4.224,2.273,6.23
									c0.799,1.712,1.797,3.442,3.416,4.416c1.397,0.84,3.178,1.008,4.707,0.445c1.529-0.563,2.775-1.847,3.293-3.393"/>
								<path style="fill:#DB744F;" d="M365.026,89.341c0.98-1.731,2.009-3.517,3.622-4.681c1.613-1.164,3.989-1.523,5.551-0.291
									c0.969,0.764,1.467,2.011,1.562,3.241c0.095,1.23-0.17,2.459-0.491,3.651c-0.575,2.137-1.337,4.224-2.273,6.23
									c-0.799,1.712-1.797,3.442-3.416,4.416c-1.397,0.84-3.178,1.008-4.707,0.445s-2.775-1.847-3.293-3.393"/>
								<g>
									<path style="fill:#DB9D86;" d="M368.118,91.525c0.008-7.027-1.02-15.139-1.012-22.166c-2.721-2.039-4.62-3.149-7.341-5.188
										c-0.027-3.778-0.9-7.339-0.927-11.117c-10.419-15.595-36.106-16.108-47.737,0.213c-0.487,4.462-0.945,8.837-1.432,13.3
										c-2.203,1.494-4.091,2.454-6.294,3.948c-1.879,6.641-3.354,13.294-3.623,20.19c-0.7,4.809-1.747,32.514,8.896,39.085
										c5.665,3.498,18.388,2.69,27.436,2.29c7.949-0.351,18.608,0.112,23.702-2.764
										C370.679,123.17,368.335,93.555,368.118,91.525z"/>
								</g>
								<path style="fill:#DBCFBB;" d="M328.591,73.156c-3.862-1.61-8.481-1.188-12.011,1.046c-1.27,0.804-0.128,2.853,1.152,2.043
									c3.062-1.938,6.862-2.23,10.201-0.838c0.585,0.244,1.292-0.237,1.455-0.797C329.581,73.945,329.178,73.4,328.591,73.156z"/>
								<path style="fill:#DBCFBB;" d="M350.158,73.96c-3.608-2.118-8.242-2.326-12.042-0.59c-1.367,0.625-0.513,2.809,0.865,2.18
									c3.296-1.506,7.101-1.28,10.22,0.551c0.546,0.321,1.312-0.06,1.549-0.592C351.033,74.876,350.707,74.282,350.158,73.96z"/>
								<circle style="fill:#2A1510;" cx="323.67" cy="82.591" r="3.028"/>
								<circle style="fill:#2A1510;" cx="343.152" cy="82.591" r="3.028"/>
								
									<linearGradient id="SVGID_00000121261493711253998360000006232773096162441606_" gradientUnits="userSpaceOnUse" x1="333.9387" y1="89.0381" x2="333.8156" y2="94.9876">
									<stop  offset="0.0475" style="stop-color:#D6805F;stop-opacity:0"/>
									<stop  offset="0.6816" style="stop-color:#D6805F"/>
									<stop  offset="1" style="stop-color:#D6653A"/>
								</linearGradient>
								<path style="fill:url(#SVGID_00000121261493711253998360000006232773096162441606_);" d="M325.38,88.45
									c-0.898,0.903-0.896,2.32-0.267,3.387c0.629,1.067,1.77,1.828,2.974,2.385c3.371,1.561,7.524,1.731,11.044,0.452
									c2.064-0.75,4.095-2.299,4.02-4.274c-0.041-1.083-0.778-2.124-1.86-2.629C340.208,87.266,326.732,87.09,325.38,88.45z"/>
								<g>
									<path style="fill:none;stroke:#2A1510;stroke-linecap:round;stroke-linejoin:round;stroke-miterlimit:10;" d="
										M318.22,99.609c6.228,4.886,26.124,4.052,30.198-0.435"/>
									<path style="fill:none;stroke:#2A1510;stroke-linecap:round;stroke-linejoin:round;stroke-miterlimit:10;" d="
										M315.952,100.168c0.633-1.252,1.865-2.184,3.243-2.451"/>
									<path style="fill:none;stroke:#2A1510;stroke-linecap:round;stroke-linejoin:round;stroke-miterlimit:10;" d="
										M346.365,97.117c1.637,0.202,3.185,1.058,4.225,2.339"/>
								</g>
							</g>
						</g>
					</g>
					<g>
						<polygon style="fill:#F4E6D0;" points="285.967,156.76 293.832,155.451 296.418,141.878 326.698,151.422 333.937,162.089 
							340.125,150.148 367.194,141.878 368.681,151.422 383.484,155.376 395.33,376.54 278.347,376.54 						"/>
						<polygon style="fill:#D13A3A;" points="323.265,158.704 343.152,158.704 337.787,176.48 375.78,287.665 292.421,291.253 
							330.141,176.796 						"/>
						<path style="fill:none;stroke:#2A1510;stroke-linecap:round;stroke-linejoin:round;stroke-miterlimit:10;" d="
							M323.957,153.336c-3.252,5.797-4.858,12.507-4.582,19.148c-9.462-1.673-18.445-5.979-25.676-12.308
							c0.127,0.059,0.254,0.118,0.381,0.177"/>
						<path style="fill:none;stroke:#2A1510;stroke-linecap:round;stroke-linejoin:round;stroke-miterlimit:10;" d="
							M341.327,152.254c3.177,5.996,4.684,12.865,4.311,19.64c6.55-5.408,13.1-10.816,19.65-16.225"/>
						<polyline style="fill:none;stroke:#2A1510;stroke-linecap:round;stroke-linejoin:round;stroke-miterlimit:10;" points="
							330.141,176.796 337.787,176.796 356.29,267.913 						"/>
						
							<line style="fill:none;stroke:#2A1510;stroke-linecap:round;stroke-linejoin:round;stroke-miterlimit:10;" x1="333.319" y1="176.796" x2="306.129" y2="279.487"/>
					</g>
					<polygon style="fill:#2A1510;" points="296.418,141.878 296.418,500.284 222.198,500.284 209.15,186.107 					"/>
					<polygon style="fill:#2A1510;" points="367.194,141.878 373.037,500.284 447.257,500.284 460.305,186.107 					"/>
					
						<line style="fill:none;stroke:#2A1510;stroke-linecap:round;stroke-linejoin:round;stroke-miterlimit:10;" x1="329.858" y1="253.305" x2="329.858" y2="375.823"/>
					
						<line style="fill:none;stroke:#2A1510;stroke-linecap:round;stroke-linejoin:round;stroke-miterlimit:10;" x1="300.186" y1="398.043" x2="373.312" y2="398.043"/>
					<polyline style="fill:none;stroke:#2A1510;stroke-linecap:round;stroke-linejoin:round;stroke-miterlimit:10;" points="
						329.134,392.254 329.134,461.864 336.749,466.726 343.215,500.284 					"/>
				</g>
				<g>
					<path style="fill:#2A1510;" d="M393.336,321.36c13.749,25.498,27.499,50.995,41.248,76.493
						c2.668,4.947,6.371,10.559,11.991,10.64c5.495,0.08,9.36-5.21,12.071-9.99c13.977-24.639,23.957-51.54,29.432-79.333
						c8.839-44.863-10.813-100.342-27.774-133.063c-27.243,37.041-49.047,79.535-62.382,123.54"/>
					<g>
						<path style="fill:#F4E6D0;" d="M422.518,338.979c10.238-4.509,15.65-21.244,12.402-38.352
							c-2.39-12.59-9.843-25.401-18.477-28.555c-7.057-2.578-13.437,1.523-17.972,7.58c-5.274,7.044-15.21,28.054-8.248,41.42
							C397.856,335.724,412.932,343.201,422.518,338.979z"/>
						<path style="fill:#B09774;" d="M412.171,322.949c8.125-3.483,12.641-15.908,10.349-28.474
							c-1.687-9.248-7.353-18.581-14.098-20.774c-5.513-1.792-10.595,1.33-14.257,5.867c-4.258,5.276-12.4,20.923-7.127,30.673
							C392.816,320.929,404.564,326.21,412.171,322.949z"/>
					</g>
					<path style="fill:#2A1510;" d="M209.15,186.107c-3.078,13.855-35.091,93.359-38.169,107.214
						c-1.237,5.568-3.62,11.448-4.43,17.008c-0.807,5.542,2.374,12.741,3.801,18.069c6.906,25.784,15.977,50.987,27.09,75.256
						c1.778,3.883,3.608,7.742,5.491,11.576c2.175,4.43,4.948,9.273,9.721,10.527c4.792,1.259,9.684-1.672,13.27-5.091
						c8.788-8.379,13.596-20.013,17.814-31.399c7.919-21.376,14.628-43.199,20.087-65.331L209.15,186.107z"/>
					<g>
						<path style="fill:#F4E6D0;" d="M217.509,331.168c0.962,11.084,10.232,20.895,21.244,22.484
							c8.104,1.169,17.228-2.468,20.663-9.9c2.808-6.074,1.42-13.336-1.485-19.365c-3.378-7.01-14.467-22.347-23.843-19.335
							C223.809,308.356,216.608,320.79,217.509,331.168z"/>
						<path style="fill:#B09774;" d="M229.104,325.635c0.706,8.77,7.501,16.532,15.573,17.79c5.941,0.925,12.629-1.953,15.147-7.833
							c2.058-4.806,1.041-10.552-1.088-15.322c-2.476-5.546-10.605-17.682-17.479-15.298
							C233.722,307.585,228.444,317.424,229.104,325.635z"/>
					</g>
					<g>
						<polygon style="fill:#B09774;" points="404.216,304.79 372.783,213.405 249.211,266.518 248.106,265.744 286.236,349.248 
							286.803,349.648 						"/>
						<polygon style="fill:#571B66;" points="412.39,307.516 384.9,223.578 249.211,266.518 248.106,265.744 286.236,349.248 
							286.803,349.648 						"/>
						<polygon style="fill:#F4E6D0;" points="155.791,191.753 194.132,276.738 286.236,349.248 248.106,265.744 						"/>
						<polygon style="fill:#6F2282;" points="147.187,195.066 187.035,279.228 286.236,349.248 248.106,265.744 						"/>
					</g>
					<g>
						<path style="fill:#DB9D86;" d="M231.898,310.796c-0.463-10.04-0.926-20.08-1.389-30.12c-0.04-0.878-0.054-1.844,0.499-2.528
							c0.632-0.781,1.831-0.901,2.765-0.529c0.933,0.373,1.651,1.133,2.295,1.905c3.659,4.383,5.94,9.901,6.445,15.589
							c3.67,4.17,7.438,7.577,11.107,11.748c4.876-4.135,11.479-7.726,17.138-10.7c1.762-0.926,3.618-1.808,5.606-1.908
							c1.064-0.053,2.178,0.171,3.117,0.664c1.255,0.659,1.647,2.292,0.825,3.448c-3.805,5.349-9.361,10.334-14.556,14.317
							c0.543,1.513,1.606,1.491,2.149,3.005c5.608-0.074,13.527-2.122,17.359-5.865c3.16-3.085,6.67-5.784,10.641-7.717
							c3.744-1.822,6.883-3.794,10.182-3.33c1.628,0.229,2.339,2.228,1.294,3.497c-1.705,2.069-3.567,4.112-5.087,6.213
							c1.613-1.88,4.571-2.989,7.259-2.878c1.788,0.074,2.61,2.281,1.389,3.59c-1.813,1.944-3.732,3.928-5.388,5.813
							c0.34-0.042,0.79-0.492,1.13-0.534c-7.64,11.843-20.815,19.945-34.831,21.419c-6.482-1.13-13.489-2.512-19.971-3.642
							c-1.418,2.891-4.571,4.298-7.764,4.989c-2.411,0.522-4.933,0.474-7.23-0.428c-5.894-2.314-8.036-8.405-7.819-14.075
							C229.223,318.574,232.09,314.961,231.898,310.796z"/>
						<path style="fill:none;stroke:#2A1510;stroke-linecap:round;stroke-linejoin:round;stroke-miterlimit:10;" d="M306.11,303.302
							c-7.295,10.543-18.556,18.271-31.017,21.287"/>
						<path style="fill:none;stroke:#2A1510;stroke-linecap:round;stroke-linejoin:round;stroke-miterlimit:10;" d="
							M274.795,329.982c11.923-1.362,23.324-6.933,31.725-15.503"/>
						<path style="fill:none;stroke:#2A1510;stroke-linecap:round;stroke-linejoin:round;stroke-miterlimit:10;" d="
							M262.899,300.779c-9.945,6.066-11.477,7.428-18.2,7.515"/>
						<path style="fill:none;stroke:#2A1510;stroke-linecap:round;stroke-linejoin:round;stroke-miterlimit:10;" d="
							M257.287,316.997c7.908-2.938,14.88-8.345,19.693-15.273"/>
					</g>
					<g>
						<path style="fill:#DB9D86;" d="M404.262,268.651c-4.903,0.921-9.806,1.842-14.708,2.763c-1.83,0.344-3.701,0.702-5.308,1.642
							c-1.607,0.94-2.927,2.59-2.949,4.451c-0.022,1.862,1.639,3.727,3.484,3.478c-3.481,0.34-6.936,1-10.418,1.339
							c-1.927,0.188-4.05,0.473-5.322,1.932c-0.874,1.003-1.168,2.479-0.745,3.74s1.547,2.261,2.849,2.535
							c-1.735,0.572-2.432,2.534-1.866,4.271c0.566,1.737,2.19,2.963,3.927,3.529c1.737,0.566,3.599,0.573,5.426,0.576
							c7.791,0.01,15.583,0.02,23.374,0.03c-1.744,2.682-5.113,3.933-8.211,3.133c-1.788-0.461-3.389-1.559-5.216-1.831
							c-1.827-0.273-4.111,0.824-4.05,2.67c0.047,1.426,1.423,2.405,2.696,3.048c8.595,4.343,19.422,3.909,27.642-1.109
							c3.841-2.345,5.686-7.066,6.137-11.543c0.452-4.478-0.402-8.973-1.251-13.392c-0.763-3.969-1.638-8.167-4.405-11.113
							c-4.055-4.319-11.193-4.566-17.117-4.508c0.932,3.165,2.049,6.477,2.981,9.643
							C402.314,271.998,403.161,270.586,404.262,268.651z"/>
						<path style="fill:none;stroke:#2A1510;stroke-linecap:round;stroke-linejoin:round;stroke-miterlimit:10;" d="M383.649,281.11
							c5.394-0.292,10.788-0.583,16.182-0.875c2.12-0.115,4.618-0.459,5.603-2.34c0.9-1.719,0.028-3.794-0.84-5.53"/>
						<path style="fill:none;stroke:#2A1510;stroke-linecap:round;stroke-linejoin:round;stroke-miterlimit:10;" d="
							M402.529,279.876c2.912-0.666,6.521-1.096,9.433-1.762"/>
						<path style="fill:none;stroke:#2A1510;stroke-linecap:round;stroke-linejoin:round;stroke-miterlimit:10;" d="
							M371.028,290.563c12.066,0.991,24.294-0.015,36.036-2.966"/>
						<path style="fill:none;stroke:#2A1510;stroke-linecap:round;stroke-linejoin:round;stroke-miterlimit:10;" d="
							M385.104,298.537c9.02-0.318,15.324,0.318,24.345,0"/>
						<path style="fill:none;stroke:#2A1510;stroke-linecap:round;stroke-linejoin:round;stroke-miterlimit:10;" d="
							M394.759,270.402c4.749-1.364,9.68-2.091,14.621-2.156"/>
					</g>
				</g>
			</g>
		</g>
	</g>
</g>
<g id="TEXT">
	<g>
		<g>
			<g>
				
					<text transform="matrix(1 0 0 1 35.6345 64.0137)" style="fill:#006064; font-family:'PlayfairDisplay-Bold'; font-size:22.985px;">DIA DO ADVOGADO</text>
			</g>
			<g>
				<text transform="matrix(1 0 0 1 94.3005 84.7725)"><tspan x="0" y="0" style="fill:#006064; font-family:'Montserrat-Light'; font-size:14.5232px; letter-spacing:1;">11</tspan><tspan x="17.224" y="-4.455" style="fill:#006064; font-family:'Montserrat-Light'; font-size:8.4142px;">TH</tspan><tspan x="28.238" y="0" style="fill:#006064; font-family:'Montserrat-Light'; font-size:14.5232px; letter-spacing:1;"> AUGUST</tspan></text>
			</g>
		</g>
	</g>
</g>
</svg>
